<?xml version="1.0" encoding="utf-8" standalone="no"?>
<!DOCTYPE svg PUBLIC "-//W3C//DTD SVG 1.1//EN"
  "http://www.w3.org/Graphics/SVG/1.1/DTD/svg11.dtd">
<svg xmlns:xlink="http://www.w3.org/1999/xlink" width="508.941461pt" height="392.514375pt" viewBox="0 0 508.941461 392.514375" xmlns="http://www.w3.org/2000/svg" version="1.1">
 <metadata>
  <rdf:RDF xmlns:dc="http://purl.org/dc/elements/1.1/" xmlns:cc="http://creativecommons.org/ns#" xmlns:rdf="http://www.w3.org/1999/02/22-rdf-syntax-ns#">
   <cc:Work>
    <dc:type rdf:resource="http://purl.org/dc/dcmitype/StillImage"/>
    <dc:date>2022-02-06T18:25:57.872054</dc:date>
    <dc:format>image/svg+xml</dc:format>
    <dc:creator>
     <cc:Agent>
      <dc:title>Matplotlib v3.5.1, https://matplotlib.org/</dc:title>
     </cc:Agent>
    </dc:creator>
   </cc:Work>
  </rdf:RDF>
 </metadata>
 <defs>
  <style type="text/css">*{stroke-linejoin: round; stroke-linecap: butt}</style>
 </defs>
 <g id="figure_1">
  <g id="patch_1">
   <path d="M 0 392.514375 
L 508.941461 392.514375 
L 508.941461 0 
L 0 0 
z
" style="fill: #ffffff"/>
  </g>
  <g id="axes_1">
   <g id="patch_2">
    <path d="M 51.378125 354.958125 
L 497.778125 354.958125 
L 497.778125 22.318125 
L 51.378125 22.318125 
z
" style="fill: #ffffff"/>
   </g>
   <g id="matplotlib.axis_1">
    <g id="xtick_1">
     <g id="line2d_1">
      <defs>
       <path id="m6d7f9552ce" d="M 0 0 
L 0 3.5 
" style="stroke: #000000; stroke-width: 0.8"/>
      </defs>
      <g>
       <use xlink:href="#m6d7f9552ce" x="105.51865" y="354.958125" style="stroke: #000000; stroke-width: 0.8"/>
      </g>
     </g>
     <g id="text_1">
      <!-- $\mathdefault{10^{1}}$ -->
      <g transform="translate(96.71865 369.556562)scale(0.1 -0.1)">
       <defs>
        <path id="DejaVuSans-31" d="M 794 531 
L 1825 531 
L 1825 4091 
L 703 3866 
L 703 4441 
L 1819 4666 
L 2450 4666 
L 2450 531 
L 3481 531 
L 3481 0 
L 794 0 
L 794 531 
z
" transform="scale(0.015625)"/>
        <path id="DejaVuSans-30" d="M 2034 4250 
Q 1547 4250 1301 3770 
Q 1056 3291 1056 2328 
Q 1056 1369 1301 889 
Q 1547 409 2034 409 
Q 2525 409 2770 889 
Q 3016 1369 3016 2328 
Q 3016 3291 2770 3770 
Q 2525 4250 2034 4250 
z
M 2034 4750 
Q 2819 4750 3233 4129 
Q 3647 3509 3647 2328 
Q 3647 1150 3233 529 
Q 2819 -91 2034 -91 
Q 1250 -91 836 529 
Q 422 1150 422 2328 
Q 422 3509 836 4129 
Q 1250 4750 2034 4750 
z
" transform="scale(0.015625)"/>
       </defs>
       <use xlink:href="#DejaVuSans-31" transform="translate(0 0.684375)"/>
       <use xlink:href="#DejaVuSans-30" transform="translate(63.623047 0.684375)"/>
       <use xlink:href="#DejaVuSans-31" transform="translate(128.203125 38.965625)scale(0.7)"/>
      </g>
     </g>
    </g>
    <g id="xtick_2">
     <g id="line2d_2">
      <g>
       <use xlink:href="#m6d7f9552ce" x="202.374352" y="354.958125" style="stroke: #000000; stroke-width: 0.8"/>
      </g>
     </g>
     <g id="text_2">
      <!-- $\mathdefault{10^{3}}$ -->
      <g transform="translate(193.574352 369.556562)scale(0.1 -0.1)">
       <defs>
        <path id="DejaVuSans-33" d="M 2597 2516 
Q 3050 2419 3304 2112 
Q 3559 1806 3559 1356 
Q 3559 666 3084 287 
Q 2609 -91 1734 -91 
Q 1441 -91 1130 -33 
Q 819 25 488 141 
L 488 750 
Q 750 597 1062 519 
Q 1375 441 1716 441 
Q 2309 441 2620 675 
Q 2931 909 2931 1356 
Q 2931 1769 2642 2001 
Q 2353 2234 1838 2234 
L 1294 2234 
L 1294 2753 
L 1863 2753 
Q 2328 2753 2575 2939 
Q 2822 3125 2822 3475 
Q 2822 3834 2567 4026 
Q 2313 4219 1838 4219 
Q 1578 4219 1281 4162 
Q 984 4106 628 3988 
L 628 4550 
Q 988 4650 1302 4700 
Q 1616 4750 1894 4750 
Q 2613 4750 3031 4423 
Q 3450 4097 3450 3541 
Q 3450 3153 3228 2886 
Q 3006 2619 2597 2516 
z
" transform="scale(0.015625)"/>
       </defs>
       <use xlink:href="#DejaVuSans-31" transform="translate(0 0.765625)"/>
       <use xlink:href="#DejaVuSans-30" transform="translate(63.623047 0.765625)"/>
       <use xlink:href="#DejaVuSans-33" transform="translate(128.203125 39.046875)scale(0.7)"/>
      </g>
     </g>
    </g>
    <g id="xtick_3">
     <g id="line2d_3">
      <g>
       <use xlink:href="#m6d7f9552ce" x="299.230055" y="354.958125" style="stroke: #000000; stroke-width: 0.8"/>
      </g>
     </g>
     <g id="text_3">
      <!-- $\mathdefault{10^{5}}$ -->
      <g transform="translate(290.430055 369.556562)scale(0.1 -0.1)">
       <defs>
        <path id="DejaVuSans-35" d="M 691 4666 
L 3169 4666 
L 3169 4134 
L 1269 4134 
L 1269 2991 
Q 1406 3038 1543 3061 
Q 1681 3084 1819 3084 
Q 2600 3084 3056 2656 
Q 3513 2228 3513 1497 
Q 3513 744 3044 326 
Q 2575 -91 1722 -91 
Q 1428 -91 1123 -41 
Q 819 9 494 109 
L 494 744 
Q 775 591 1075 516 
Q 1375 441 1709 441 
Q 2250 441 2565 725 
Q 2881 1009 2881 1497 
Q 2881 1984 2565 2268 
Q 2250 2553 1709 2553 
Q 1456 2553 1204 2497 
Q 953 2441 691 2322 
L 691 4666 
z
" transform="scale(0.015625)"/>
       </defs>
       <use xlink:href="#DejaVuSans-31" transform="translate(0 0.684375)"/>
       <use xlink:href="#DejaVuSans-30" transform="translate(63.623047 0.684375)"/>
       <use xlink:href="#DejaVuSans-35" transform="translate(128.203125 38.965625)scale(0.7)"/>
      </g>
     </g>
    </g>
    <g id="xtick_4">
     <g id="line2d_4">
      <g>
       <use xlink:href="#m6d7f9552ce" x="396.085758" y="354.958125" style="stroke: #000000; stroke-width: 0.8"/>
      </g>
     </g>
     <g id="text_4">
      <!-- $\mathdefault{10^{7}}$ -->
      <g transform="translate(387.285758 369.556562)scale(0.1 -0.1)">
       <defs>
        <path id="DejaVuSans-37" d="M 525 4666 
L 3525 4666 
L 3525 4397 
L 1831 0 
L 1172 0 
L 2766 4134 
L 525 4134 
L 525 4666 
z
" transform="scale(0.015625)"/>
       </defs>
       <use xlink:href="#DejaVuSans-31" transform="translate(0 0.684375)"/>
       <use xlink:href="#DejaVuSans-30" transform="translate(63.623047 0.684375)"/>
       <use xlink:href="#DejaVuSans-37" transform="translate(128.203125 38.965625)scale(0.7)"/>
      </g>
     </g>
    </g>
    <g id="xtick_5">
     <g id="line2d_5">
      <g>
       <use xlink:href="#m6d7f9552ce" x="492.941461" y="354.958125" style="stroke: #000000; stroke-width: 0.8"/>
      </g>
     </g>
     <g id="text_5">
      <!-- $\mathdefault{10^{9}}$ -->
      <g transform="translate(484.141461 369.556562)scale(0.1 -0.1)">
       <defs>
        <path id="DejaVuSans-39" d="M 703 97 
L 703 672 
Q 941 559 1184 500 
Q 1428 441 1663 441 
Q 2288 441 2617 861 
Q 2947 1281 2994 2138 
Q 2813 1869 2534 1725 
Q 2256 1581 1919 1581 
Q 1219 1581 811 2004 
Q 403 2428 403 3163 
Q 403 3881 828 4315 
Q 1253 4750 1959 4750 
Q 2769 4750 3195 4129 
Q 3622 3509 3622 2328 
Q 3622 1225 3098 567 
Q 2575 -91 1691 -91 
Q 1453 -91 1209 -44 
Q 966 3 703 97 
z
M 1959 2075 
Q 2384 2075 2632 2365 
Q 2881 2656 2881 3163 
Q 2881 3666 2632 3958 
Q 2384 4250 1959 4250 
Q 1534 4250 1286 3958 
Q 1038 3666 1038 3163 
Q 1038 2656 1286 2365 
Q 1534 2075 1959 2075 
z
" transform="scale(0.015625)"/>
       </defs>
       <use xlink:href="#DejaVuSans-31" transform="translate(0 0.765625)"/>
       <use xlink:href="#DejaVuSans-30" transform="translate(63.623047 0.765625)"/>
       <use xlink:href="#DejaVuSans-39" transform="translate(128.203125 39.046875)scale(0.7)"/>
      </g>
     </g>
    </g>
    <g id="text_6">
     <!-- # of reads -->
     <g transform="translate(248.528125 383.234687)scale(0.1 -0.1)">
      <defs>
       <path id="DejaVuSans-23" d="M 3272 2816 
L 2363 2816 
L 2100 1772 
L 3016 1772 
L 3272 2816 
z
M 2803 4594 
L 2478 3297 
L 3391 3297 
L 3719 4594 
L 4219 4594 
L 3897 3297 
L 4872 3297 
L 4872 2816 
L 3775 2816 
L 3519 1772 
L 4513 1772 
L 4513 1294 
L 3397 1294 
L 3072 0 
L 2572 0 
L 2894 1294 
L 1978 1294 
L 1656 0 
L 1153 0 
L 1478 1294 
L 494 1294 
L 494 1772 
L 1594 1772 
L 1856 2816 
L 850 2816 
L 850 3297 
L 1978 3297 
L 2297 4594 
L 2803 4594 
z
" transform="scale(0.015625)"/>
       <path id="DejaVuSans-20" transform="scale(0.015625)"/>
       <path id="DejaVuSans-6f" d="M 1959 3097 
Q 1497 3097 1228 2736 
Q 959 2375 959 1747 
Q 959 1119 1226 758 
Q 1494 397 1959 397 
Q 2419 397 2687 759 
Q 2956 1122 2956 1747 
Q 2956 2369 2687 2733 
Q 2419 3097 1959 3097 
z
M 1959 3584 
Q 2709 3584 3137 3096 
Q 3566 2609 3566 1747 
Q 3566 888 3137 398 
Q 2709 -91 1959 -91 
Q 1206 -91 779 398 
Q 353 888 353 1747 
Q 353 2609 779 3096 
Q 1206 3584 1959 3584 
z
" transform="scale(0.015625)"/>
       <path id="DejaVuSans-66" d="M 2375 4863 
L 2375 4384 
L 1825 4384 
Q 1516 4384 1395 4259 
Q 1275 4134 1275 3809 
L 1275 3500 
L 2222 3500 
L 2222 3053 
L 1275 3053 
L 1275 0 
L 697 0 
L 697 3053 
L 147 3053 
L 147 3500 
L 697 3500 
L 697 3744 
Q 697 4328 969 4595 
Q 1241 4863 1831 4863 
L 2375 4863 
z
" transform="scale(0.015625)"/>
       <path id="DejaVuSans-72" d="M 2631 2963 
Q 2534 3019 2420 3045 
Q 2306 3072 2169 3072 
Q 1681 3072 1420 2755 
Q 1159 2438 1159 1844 
L 1159 0 
L 581 0 
L 581 3500 
L 1159 3500 
L 1159 2956 
Q 1341 3275 1631 3429 
Q 1922 3584 2338 3584 
Q 2397 3584 2469 3576 
Q 2541 3569 2628 3553 
L 2631 2963 
z
" transform="scale(0.015625)"/>
       <path id="DejaVuSans-65" d="M 3597 1894 
L 3597 1613 
L 953 1613 
Q 991 1019 1311 708 
Q 1631 397 2203 397 
Q 2534 397 2845 478 
Q 3156 559 3463 722 
L 3463 178 
Q 3153 47 2828 -22 
Q 2503 -91 2169 -91 
Q 1331 -91 842 396 
Q 353 884 353 1716 
Q 353 2575 817 3079 
Q 1281 3584 2069 3584 
Q 2775 3584 3186 3129 
Q 3597 2675 3597 1894 
z
M 3022 2063 
Q 3016 2534 2758 2815 
Q 2500 3097 2075 3097 
Q 1594 3097 1305 2825 
Q 1016 2553 972 2059 
L 3022 2063 
z
" transform="scale(0.015625)"/>
       <path id="DejaVuSans-61" d="M 2194 1759 
Q 1497 1759 1228 1600 
Q 959 1441 959 1056 
Q 959 750 1161 570 
Q 1363 391 1709 391 
Q 2188 391 2477 730 
Q 2766 1069 2766 1631 
L 2766 1759 
L 2194 1759 
z
M 3341 1997 
L 3341 0 
L 2766 0 
L 2766 531 
Q 2569 213 2275 61 
Q 1981 -91 1556 -91 
Q 1019 -91 701 211 
Q 384 513 384 1019 
Q 384 1609 779 1909 
Q 1175 2209 1959 2209 
L 2766 2209 
L 2766 2266 
Q 2766 2663 2505 2880 
Q 2244 3097 1772 3097 
Q 1472 3097 1187 3025 
Q 903 2953 641 2809 
L 641 3341 
Q 956 3463 1253 3523 
Q 1550 3584 1831 3584 
Q 2591 3584 2966 3190 
Q 3341 2797 3341 1997 
z
" transform="scale(0.015625)"/>
       <path id="DejaVuSans-64" d="M 2906 2969 
L 2906 4863 
L 3481 4863 
L 3481 0 
L 2906 0 
L 2906 525 
Q 2725 213 2448 61 
Q 2172 -91 1784 -91 
Q 1150 -91 751 415 
Q 353 922 353 1747 
Q 353 2572 751 3078 
Q 1150 3584 1784 3584 
Q 2172 3584 2448 3432 
Q 2725 3281 2906 2969 
z
M 947 1747 
Q 947 1113 1208 752 
Q 1469 391 1925 391 
Q 2381 391 2643 752 
Q 2906 1113 2906 1747 
Q 2906 2381 2643 2742 
Q 2381 3103 1925 3103 
Q 1469 3103 1208 2742 
Q 947 2381 947 1747 
z
" transform="scale(0.015625)"/>
       <path id="DejaVuSans-73" d="M 2834 3397 
L 2834 2853 
Q 2591 2978 2328 3040 
Q 2066 3103 1784 3103 
Q 1356 3103 1142 2972 
Q 928 2841 928 2578 
Q 928 2378 1081 2264 
Q 1234 2150 1697 2047 
L 1894 2003 
Q 2506 1872 2764 1633 
Q 3022 1394 3022 966 
Q 3022 478 2636 193 
Q 2250 -91 1575 -91 
Q 1294 -91 989 -36 
Q 684 19 347 128 
L 347 722 
Q 666 556 975 473 
Q 1284 391 1588 391 
Q 1994 391 2212 530 
Q 2431 669 2431 922 
Q 2431 1156 2273 1281 
Q 2116 1406 1581 1522 
L 1381 1569 
Q 847 1681 609 1914 
Q 372 2147 372 2553 
Q 372 3047 722 3315 
Q 1072 3584 1716 3584 
Q 2034 3584 2315 3537 
Q 2597 3491 2834 3397 
z
" transform="scale(0.015625)"/>
      </defs>
      <use xlink:href="#DejaVuSans-23"/>
      <use xlink:href="#DejaVuSans-20" x="83.789062"/>
      <use xlink:href="#DejaVuSans-6f" x="115.576172"/>
      <use xlink:href="#DejaVuSans-66" x="176.757812"/>
      <use xlink:href="#DejaVuSans-20" x="211.962891"/>
      <use xlink:href="#DejaVuSans-72" x="243.75"/>
      <use xlink:href="#DejaVuSans-65" x="282.613281"/>
      <use xlink:href="#DejaVuSans-61" x="344.136719"/>
      <use xlink:href="#DejaVuSans-64" x="405.416016"/>
      <use xlink:href="#DejaVuSans-73" x="468.892578"/>
     </g>
    </g>
   </g>
   <g id="matplotlib.axis_2">
    <g id="ytick_1">
     <g id="line2d_6">
      <defs>
       <path id="m0d5f32c75b" d="M 0 0 
L -3.5 0 
" style="stroke: #000000; stroke-width: 0.8"/>
      </defs>
      <g>
       <use xlink:href="#m0d5f32c75b" x="51.378125" y="329.144078" style="stroke: #000000; stroke-width: 0.8"/>
      </g>
     </g>
     <g id="text_7">
      <!-- $\mathdefault{10^{-3}}$ -->
      <g transform="translate(20.878125 332.943296)scale(0.1 -0.1)">
       <defs>
        <path id="DejaVuSans-2212" d="M 678 2272 
L 4684 2272 
L 4684 1741 
L 678 1741 
L 678 2272 
z
" transform="scale(0.015625)"/>
       </defs>
       <use xlink:href="#DejaVuSans-31" transform="translate(0 0.765625)"/>
       <use xlink:href="#DejaVuSans-30" transform="translate(63.623047 0.765625)"/>
       <use xlink:href="#DejaVuSans-2212" transform="translate(128.203125 39.046875)scale(0.7)"/>
       <use xlink:href="#DejaVuSans-33" transform="translate(186.855469 39.046875)scale(0.7)"/>
      </g>
     </g>
    </g>
    <g id="ytick_2">
     <g id="line2d_7">
      <g>
       <use xlink:href="#m0d5f32c75b" x="51.378125" y="286.553976" style="stroke: #000000; stroke-width: 0.8"/>
      </g>
     </g>
     <g id="text_8">
      <!-- $\mathdefault{10^{-2}}$ -->
      <g transform="translate(20.878125 290.353195)scale(0.1 -0.1)">
       <defs>
        <path id="DejaVuSans-32" d="M 1228 531 
L 3431 531 
L 3431 0 
L 469 0 
L 469 531 
Q 828 903 1448 1529 
Q 2069 2156 2228 2338 
Q 2531 2678 2651 2914 
Q 2772 3150 2772 3378 
Q 2772 3750 2511 3984 
Q 2250 4219 1831 4219 
Q 1534 4219 1204 4116 
Q 875 4013 500 3803 
L 500 4441 
Q 881 4594 1212 4672 
Q 1544 4750 1819 4750 
Q 2544 4750 2975 4387 
Q 3406 4025 3406 3419 
Q 3406 3131 3298 2873 
Q 3191 2616 2906 2266 
Q 2828 2175 2409 1742 
Q 1991 1309 1228 531 
z
" transform="scale(0.015625)"/>
       </defs>
       <use xlink:href="#DejaVuSans-31" transform="translate(0 0.765625)"/>
       <use xlink:href="#DejaVuSans-30" transform="translate(63.623047 0.765625)"/>
       <use xlink:href="#DejaVuSans-2212" transform="translate(128.203125 39.046875)scale(0.7)"/>
       <use xlink:href="#DejaVuSans-32" transform="translate(186.855469 39.046875)scale(0.7)"/>
      </g>
     </g>
    </g>
    <g id="ytick_3">
     <g id="line2d_8">
      <g>
       <use xlink:href="#m0d5f32c75b" x="51.378125" y="243.963875" style="stroke: #000000; stroke-width: 0.8"/>
      </g>
     </g>
     <g id="text_9">
      <!-- $\mathdefault{10^{-1}}$ -->
      <g transform="translate(20.878125 247.763094)scale(0.1 -0.1)">
       <use xlink:href="#DejaVuSans-31" transform="translate(0 0.684375)"/>
       <use xlink:href="#DejaVuSans-30" transform="translate(63.623047 0.684375)"/>
       <use xlink:href="#DejaVuSans-2212" transform="translate(128.203125 38.965625)scale(0.7)"/>
       <use xlink:href="#DejaVuSans-31" transform="translate(186.855469 38.965625)scale(0.7)"/>
      </g>
     </g>
    </g>
    <g id="ytick_4">
     <g id="line2d_9">
      <g>
       <use xlink:href="#m0d5f32c75b" x="51.378125" y="201.373773" style="stroke: #000000; stroke-width: 0.8"/>
      </g>
     </g>
     <g id="text_10">
      <!-- $\mathdefault{10^{0}}$ -->
      <g transform="translate(26.778125 205.172992)scale(0.1 -0.1)">
       <use xlink:href="#DejaVuSans-31" transform="translate(0 0.765625)"/>
       <use xlink:href="#DejaVuSans-30" transform="translate(63.623047 0.765625)"/>
       <use xlink:href="#DejaVuSans-30" transform="translate(128.203125 39.046875)scale(0.7)"/>
      </g>
     </g>
    </g>
    <g id="ytick_5">
     <g id="line2d_10">
      <g>
       <use xlink:href="#m0d5f32c75b" x="51.378125" y="158.783672" style="stroke: #000000; stroke-width: 0.8"/>
      </g>
     </g>
     <g id="text_11">
      <!-- $\mathdefault{10^{1}}$ -->
      <g transform="translate(26.778125 162.582891)scale(0.1 -0.1)">
       <use xlink:href="#DejaVuSans-31" transform="translate(0 0.684375)"/>
       <use xlink:href="#DejaVuSans-30" transform="translate(63.623047 0.684375)"/>
       <use xlink:href="#DejaVuSans-31" transform="translate(128.203125 38.965625)scale(0.7)"/>
      </g>
     </g>
    </g>
    <g id="ytick_6">
     <g id="line2d_11">
      <g>
       <use xlink:href="#m0d5f32c75b" x="51.378125" y="116.19357" style="stroke: #000000; stroke-width: 0.8"/>
      </g>
     </g>
     <g id="text_12">
      <!-- $\mathdefault{10^{2}}$ -->
      <g transform="translate(26.778125 119.992789)scale(0.1 -0.1)">
       <use xlink:href="#DejaVuSans-31" transform="translate(0 0.765625)"/>
       <use xlink:href="#DejaVuSans-30" transform="translate(63.623047 0.765625)"/>
       <use xlink:href="#DejaVuSans-32" transform="translate(128.203125 39.046875)scale(0.7)"/>
      </g>
     </g>
    </g>
    <g id="ytick_7">
     <g id="line2d_12">
      <g>
       <use xlink:href="#m0d5f32c75b" x="51.378125" y="73.603469" style="stroke: #000000; stroke-width: 0.8"/>
      </g>
     </g>
     <g id="text_13">
      <!-- $\mathdefault{10^{3}}$ -->
      <g transform="translate(26.778125 77.402688)scale(0.1 -0.1)">
       <use xlink:href="#DejaVuSans-31" transform="translate(0 0.765625)"/>
       <use xlink:href="#DejaVuSans-30" transform="translate(63.623047 0.765625)"/>
       <use xlink:href="#DejaVuSans-33" transform="translate(128.203125 39.046875)scale(0.7)"/>
      </g>
     </g>
    </g>
    <g id="ytick_8">
     <g id="line2d_13">
      <g>
       <use xlink:href="#m0d5f32c75b" x="51.378125" y="31.013368" style="stroke: #000000; stroke-width: 0.8"/>
      </g>
     </g>
     <g id="text_14">
      <!-- $\mathdefault{10^{4}}$ -->
      <g transform="translate(26.778125 34.812586)scale(0.1 -0.1)">
       <defs>
        <path id="DejaVuSans-34" d="M 2419 4116 
L 825 1625 
L 2419 1625 
L 2419 4116 
z
M 2253 4666 
L 3047 4666 
L 3047 1625 
L 3713 1625 
L 3713 1100 
L 3047 1100 
L 3047 0 
L 2419 0 
L 2419 1100 
L 313 1100 
L 313 1709 
L 2253 4666 
z
" transform="scale(0.015625)"/>
       </defs>
       <use xlink:href="#DejaVuSans-31" transform="translate(0 0.684375)"/>
       <use xlink:href="#DejaVuSans-30" transform="translate(63.623047 0.684375)"/>
       <use xlink:href="#DejaVuSans-34" transform="translate(128.203125 38.965625)scale(0.7)"/>
      </g>
     </g>
    </g>
    <g id="ytick_9">
     <g id="line2d_14">
      <defs>
       <path id="m6f41b54f7b" d="M 0 0 
L -2 0 
" style="stroke: #000000; stroke-width: 0.6"/>
      </defs>
      <g>
       <use xlink:href="#m6f41b54f7b" x="51.378125" y="351.413536" style="stroke: #000000; stroke-width: 0.6"/>
      </g>
     </g>
    </g>
    <g id="ytick_10">
     <g id="line2d_15">
      <g>
       <use xlink:href="#m6f41b54f7b" x="51.378125" y="346.092383" style="stroke: #000000; stroke-width: 0.6"/>
      </g>
     </g>
    </g>
    <g id="ytick_11">
     <g id="line2d_16">
      <g>
       <use xlink:href="#m6f41b54f7b" x="51.378125" y="341.964976" style="stroke: #000000; stroke-width: 0.6"/>
      </g>
     </g>
    </g>
    <g id="ytick_12">
     <g id="line2d_17">
      <g>
       <use xlink:href="#m6f41b54f7b" x="51.378125" y="338.592638" style="stroke: #000000; stroke-width: 0.6"/>
      </g>
     </g>
    </g>
    <g id="ytick_13">
     <g id="line2d_18">
      <g>
       <use xlink:href="#m6f41b54f7b" x="51.378125" y="335.741368" style="stroke: #000000; stroke-width: 0.6"/>
      </g>
     </g>
    </g>
    <g id="ytick_14">
     <g id="line2d_19">
      <g>
       <use xlink:href="#m6f41b54f7b" x="51.378125" y="333.271485" style="stroke: #000000; stroke-width: 0.6"/>
      </g>
     </g>
    </g>
    <g id="ytick_15">
     <g id="line2d_20">
      <g>
       <use xlink:href="#m6f41b54f7b" x="51.378125" y="331.092894" style="stroke: #000000; stroke-width: 0.6"/>
      </g>
     </g>
    </g>
    <g id="ytick_16">
     <g id="line2d_21">
      <g>
       <use xlink:href="#m6f41b54f7b" x="51.378125" y="316.32318" style="stroke: #000000; stroke-width: 0.6"/>
      </g>
     </g>
    </g>
    <g id="ytick_17">
     <g id="line2d_22">
      <g>
       <use xlink:href="#m6f41b54f7b" x="51.378125" y="308.823435" style="stroke: #000000; stroke-width: 0.6"/>
      </g>
     </g>
    </g>
    <g id="ytick_18">
     <g id="line2d_23">
      <g>
       <use xlink:href="#m6f41b54f7b" x="51.378125" y="303.502282" style="stroke: #000000; stroke-width: 0.6"/>
      </g>
     </g>
    </g>
    <g id="ytick_19">
     <g id="line2d_24">
      <g>
       <use xlink:href="#m6f41b54f7b" x="51.378125" y="299.374874" style="stroke: #000000; stroke-width: 0.6"/>
      </g>
     </g>
    </g>
    <g id="ytick_20">
     <g id="line2d_25">
      <g>
       <use xlink:href="#m6f41b54f7b" x="51.378125" y="296.002537" style="stroke: #000000; stroke-width: 0.6"/>
      </g>
     </g>
    </g>
    <g id="ytick_21">
     <g id="line2d_26">
      <g>
       <use xlink:href="#m6f41b54f7b" x="51.378125" y="293.151266" style="stroke: #000000; stroke-width: 0.6"/>
      </g>
     </g>
    </g>
    <g id="ytick_22">
     <g id="line2d_27">
      <g>
       <use xlink:href="#m6f41b54f7b" x="51.378125" y="290.681384" style="stroke: #000000; stroke-width: 0.6"/>
      </g>
     </g>
    </g>
    <g id="ytick_23">
     <g id="line2d_28">
      <g>
       <use xlink:href="#m6f41b54f7b" x="51.378125" y="288.502792" style="stroke: #000000; stroke-width: 0.6"/>
      </g>
     </g>
    </g>
    <g id="ytick_24">
     <g id="line2d_29">
      <g>
       <use xlink:href="#m6f41b54f7b" x="51.378125" y="273.733078" style="stroke: #000000; stroke-width: 0.6"/>
      </g>
     </g>
    </g>
    <g id="ytick_25">
     <g id="line2d_30">
      <g>
       <use xlink:href="#m6f41b54f7b" x="51.378125" y="266.233334" style="stroke: #000000; stroke-width: 0.6"/>
      </g>
     </g>
    </g>
    <g id="ytick_26">
     <g id="line2d_31">
      <g>
       <use xlink:href="#m6f41b54f7b" x="51.378125" y="260.91218" style="stroke: #000000; stroke-width: 0.6"/>
      </g>
     </g>
    </g>
    <g id="ytick_27">
     <g id="line2d_32">
      <g>
       <use xlink:href="#m6f41b54f7b" x="51.378125" y="256.784773" style="stroke: #000000; stroke-width: 0.6"/>
      </g>
     </g>
    </g>
    <g id="ytick_28">
     <g id="line2d_33">
      <g>
       <use xlink:href="#m6f41b54f7b" x="51.378125" y="253.412436" style="stroke: #000000; stroke-width: 0.6"/>
      </g>
     </g>
    </g>
    <g id="ytick_29">
     <g id="line2d_34">
      <g>
       <use xlink:href="#m6f41b54f7b" x="51.378125" y="250.561165" style="stroke: #000000; stroke-width: 0.6"/>
      </g>
     </g>
    </g>
    <g id="ytick_30">
     <g id="line2d_35">
      <g>
       <use xlink:href="#m6f41b54f7b" x="51.378125" y="248.091282" style="stroke: #000000; stroke-width: 0.6"/>
      </g>
     </g>
    </g>
    <g id="ytick_31">
     <g id="line2d_36">
      <g>
       <use xlink:href="#m6f41b54f7b" x="51.378125" y="245.912691" style="stroke: #000000; stroke-width: 0.6"/>
      </g>
     </g>
    </g>
    <g id="ytick_32">
     <g id="line2d_37">
      <g>
       <use xlink:href="#m6f41b54f7b" x="51.378125" y="231.142977" style="stroke: #000000; stroke-width: 0.6"/>
      </g>
     </g>
    </g>
    <g id="ytick_33">
     <g id="line2d_38">
      <g>
       <use xlink:href="#m6f41b54f7b" x="51.378125" y="223.643232" style="stroke: #000000; stroke-width: 0.6"/>
      </g>
     </g>
    </g>
    <g id="ytick_34">
     <g id="line2d_39">
      <g>
       <use xlink:href="#m6f41b54f7b" x="51.378125" y="218.322079" style="stroke: #000000; stroke-width: 0.6"/>
      </g>
     </g>
    </g>
    <g id="ytick_35">
     <g id="line2d_40">
      <g>
       <use xlink:href="#m6f41b54f7b" x="51.378125" y="214.194671" style="stroke: #000000; stroke-width: 0.6"/>
      </g>
     </g>
    </g>
    <g id="ytick_36">
     <g id="line2d_41">
      <g>
       <use xlink:href="#m6f41b54f7b" x="51.378125" y="210.822334" style="stroke: #000000; stroke-width: 0.6"/>
      </g>
     </g>
    </g>
    <g id="ytick_37">
     <g id="line2d_42">
      <g>
       <use xlink:href="#m6f41b54f7b" x="51.378125" y="207.971064" style="stroke: #000000; stroke-width: 0.6"/>
      </g>
     </g>
    </g>
    <g id="ytick_38">
     <g id="line2d_43">
      <g>
       <use xlink:href="#m6f41b54f7b" x="51.378125" y="205.501181" style="stroke: #000000; stroke-width: 0.6"/>
      </g>
     </g>
    </g>
    <g id="ytick_39">
     <g id="line2d_44">
      <g>
       <use xlink:href="#m6f41b54f7b" x="51.378125" y="203.32259" style="stroke: #000000; stroke-width: 0.6"/>
      </g>
     </g>
    </g>
    <g id="ytick_40">
     <g id="line2d_45">
      <g>
       <use xlink:href="#m6f41b54f7b" x="51.378125" y="188.552875" style="stroke: #000000; stroke-width: 0.6"/>
      </g>
     </g>
    </g>
    <g id="ytick_41">
     <g id="line2d_46">
      <g>
       <use xlink:href="#m6f41b54f7b" x="51.378125" y="181.053131" style="stroke: #000000; stroke-width: 0.6"/>
      </g>
     </g>
    </g>
    <g id="ytick_42">
     <g id="line2d_47">
      <g>
       <use xlink:href="#m6f41b54f7b" x="51.378125" y="175.731977" style="stroke: #000000; stroke-width: 0.6"/>
      </g>
     </g>
    </g>
    <g id="ytick_43">
     <g id="line2d_48">
      <g>
       <use xlink:href="#m6f41b54f7b" x="51.378125" y="171.60457" style="stroke: #000000; stroke-width: 0.6"/>
      </g>
     </g>
    </g>
    <g id="ytick_44">
     <g id="line2d_49">
      <g>
       <use xlink:href="#m6f41b54f7b" x="51.378125" y="168.232233" style="stroke: #000000; stroke-width: 0.6"/>
      </g>
     </g>
    </g>
    <g id="ytick_45">
     <g id="line2d_50">
      <g>
       <use xlink:href="#m6f41b54f7b" x="51.378125" y="165.380962" style="stroke: #000000; stroke-width: 0.6"/>
      </g>
     </g>
    </g>
    <g id="ytick_46">
     <g id="line2d_51">
      <g>
       <use xlink:href="#m6f41b54f7b" x="51.378125" y="162.911079" style="stroke: #000000; stroke-width: 0.6"/>
      </g>
     </g>
    </g>
    <g id="ytick_47">
     <g id="line2d_52">
      <g>
       <use xlink:href="#m6f41b54f7b" x="51.378125" y="160.732488" style="stroke: #000000; stroke-width: 0.6"/>
      </g>
     </g>
    </g>
    <g id="ytick_48">
     <g id="line2d_53">
      <g>
       <use xlink:href="#m6f41b54f7b" x="51.378125" y="145.962774" style="stroke: #000000; stroke-width: 0.6"/>
      </g>
     </g>
    </g>
    <g id="ytick_49">
     <g id="line2d_54">
      <g>
       <use xlink:href="#m6f41b54f7b" x="51.378125" y="138.463029" style="stroke: #000000; stroke-width: 0.6"/>
      </g>
     </g>
    </g>
    <g id="ytick_50">
     <g id="line2d_55">
      <g>
       <use xlink:href="#m6f41b54f7b" x="51.378125" y="133.141876" style="stroke: #000000; stroke-width: 0.6"/>
      </g>
     </g>
    </g>
    <g id="ytick_51">
     <g id="line2d_56">
      <g>
       <use xlink:href="#m6f41b54f7b" x="51.378125" y="129.014469" style="stroke: #000000; stroke-width: 0.6"/>
      </g>
     </g>
    </g>
    <g id="ytick_52">
     <g id="line2d_57">
      <g>
       <use xlink:href="#m6f41b54f7b" x="51.378125" y="125.642131" style="stroke: #000000; stroke-width: 0.6"/>
      </g>
     </g>
    </g>
    <g id="ytick_53">
     <g id="line2d_58">
      <g>
       <use xlink:href="#m6f41b54f7b" x="51.378125" y="122.790861" style="stroke: #000000; stroke-width: 0.6"/>
      </g>
     </g>
    </g>
    <g id="ytick_54">
     <g id="line2d_59">
      <g>
       <use xlink:href="#m6f41b54f7b" x="51.378125" y="120.320978" style="stroke: #000000; stroke-width: 0.6"/>
      </g>
     </g>
    </g>
    <g id="ytick_55">
     <g id="line2d_60">
      <g>
       <use xlink:href="#m6f41b54f7b" x="51.378125" y="118.142387" style="stroke: #000000; stroke-width: 0.6"/>
      </g>
     </g>
    </g>
    <g id="ytick_56">
     <g id="line2d_61">
      <g>
       <use xlink:href="#m6f41b54f7b" x="51.378125" y="103.372672" style="stroke: #000000; stroke-width: 0.6"/>
      </g>
     </g>
    </g>
    <g id="ytick_57">
     <g id="line2d_62">
      <g>
       <use xlink:href="#m6f41b54f7b" x="51.378125" y="95.872928" style="stroke: #000000; stroke-width: 0.6"/>
      </g>
     </g>
    </g>
    <g id="ytick_58">
     <g id="line2d_63">
      <g>
       <use xlink:href="#m6f41b54f7b" x="51.378125" y="90.551774" style="stroke: #000000; stroke-width: 0.6"/>
      </g>
     </g>
    </g>
    <g id="ytick_59">
     <g id="line2d_64">
      <g>
       <use xlink:href="#m6f41b54f7b" x="51.378125" y="86.424367" style="stroke: #000000; stroke-width: 0.6"/>
      </g>
     </g>
    </g>
    <g id="ytick_60">
     <g id="line2d_65">
      <g>
       <use xlink:href="#m6f41b54f7b" x="51.378125" y="83.05203" style="stroke: #000000; stroke-width: 0.6"/>
      </g>
     </g>
    </g>
    <g id="ytick_61">
     <g id="line2d_66">
      <g>
       <use xlink:href="#m6f41b54f7b" x="51.378125" y="80.200759" style="stroke: #000000; stroke-width: 0.6"/>
      </g>
     </g>
    </g>
    <g id="ytick_62">
     <g id="line2d_67">
      <g>
       <use xlink:href="#m6f41b54f7b" x="51.378125" y="77.730876" style="stroke: #000000; stroke-width: 0.6"/>
      </g>
     </g>
    </g>
    <g id="ytick_63">
     <g id="line2d_68">
      <g>
       <use xlink:href="#m6f41b54f7b" x="51.378125" y="75.552285" style="stroke: #000000; stroke-width: 0.6"/>
      </g>
     </g>
    </g>
    <g id="ytick_64">
     <g id="line2d_69">
      <g>
       <use xlink:href="#m6f41b54f7b" x="51.378125" y="60.782571" style="stroke: #000000; stroke-width: 0.6"/>
      </g>
     </g>
    </g>
    <g id="ytick_65">
     <g id="line2d_70">
      <g>
       <use xlink:href="#m6f41b54f7b" x="51.378125" y="53.282826" style="stroke: #000000; stroke-width: 0.6"/>
      </g>
     </g>
    </g>
    <g id="ytick_66">
     <g id="line2d_71">
      <g>
       <use xlink:href="#m6f41b54f7b" x="51.378125" y="47.961673" style="stroke: #000000; stroke-width: 0.6"/>
      </g>
     </g>
    </g>
    <g id="ytick_67">
     <g id="line2d_72">
      <g>
       <use xlink:href="#m6f41b54f7b" x="51.378125" y="43.834266" style="stroke: #000000; stroke-width: 0.6"/>
      </g>
     </g>
    </g>
    <g id="ytick_68">
     <g id="line2d_73">
      <g>
       <use xlink:href="#m6f41b54f7b" x="51.378125" y="40.461928" style="stroke: #000000; stroke-width: 0.6"/>
      </g>
     </g>
    </g>
    <g id="ytick_69">
     <g id="line2d_74">
      <g>
       <use xlink:href="#m6f41b54f7b" x="51.378125" y="37.610658" style="stroke: #000000; stroke-width: 0.6"/>
      </g>
     </g>
    </g>
    <g id="ytick_70">
     <g id="line2d_75">
      <g>
       <use xlink:href="#m6f41b54f7b" x="51.378125" y="35.140775" style="stroke: #000000; stroke-width: 0.6"/>
      </g>
     </g>
    </g>
    <g id="ytick_71">
     <g id="line2d_76">
      <g>
       <use xlink:href="#m6f41b54f7b" x="51.378125" y="32.962184" style="stroke: #000000; stroke-width: 0.6"/>
      </g>
     </g>
    </g>
    <g id="text_15">
     <!-- GFLOP / sec -->
     <g transform="translate(14.798437 218.236562)rotate(-90)scale(0.1 -0.1)">
      <defs>
       <path id="DejaVuSans-47" d="M 3809 666 
L 3809 1919 
L 2778 1919 
L 2778 2438 
L 4434 2438 
L 4434 434 
Q 4069 175 3628 42 
Q 3188 -91 2688 -91 
Q 1594 -91 976 548 
Q 359 1188 359 2328 
Q 359 3472 976 4111 
Q 1594 4750 2688 4750 
Q 3144 4750 3555 4637 
Q 3966 4525 4313 4306 
L 4313 3634 
Q 3963 3931 3569 4081 
Q 3175 4231 2741 4231 
Q 1884 4231 1454 3753 
Q 1025 3275 1025 2328 
Q 1025 1384 1454 906 
Q 1884 428 2741 428 
Q 3075 428 3337 486 
Q 3600 544 3809 666 
z
" transform="scale(0.015625)"/>
       <path id="DejaVuSans-46" d="M 628 4666 
L 3309 4666 
L 3309 4134 
L 1259 4134 
L 1259 2759 
L 3109 2759 
L 3109 2228 
L 1259 2228 
L 1259 0 
L 628 0 
L 628 4666 
z
" transform="scale(0.015625)"/>
       <path id="DejaVuSans-4c" d="M 628 4666 
L 1259 4666 
L 1259 531 
L 3531 531 
L 3531 0 
L 628 0 
L 628 4666 
z
" transform="scale(0.015625)"/>
       <path id="DejaVuSans-4f" d="M 2522 4238 
Q 1834 4238 1429 3725 
Q 1025 3213 1025 2328 
Q 1025 1447 1429 934 
Q 1834 422 2522 422 
Q 3209 422 3611 934 
Q 4013 1447 4013 2328 
Q 4013 3213 3611 3725 
Q 3209 4238 2522 4238 
z
M 2522 4750 
Q 3503 4750 4090 4092 
Q 4678 3434 4678 2328 
Q 4678 1225 4090 567 
Q 3503 -91 2522 -91 
Q 1538 -91 948 565 
Q 359 1222 359 2328 
Q 359 3434 948 4092 
Q 1538 4750 2522 4750 
z
" transform="scale(0.015625)"/>
       <path id="DejaVuSans-50" d="M 1259 4147 
L 1259 2394 
L 2053 2394 
Q 2494 2394 2734 2622 
Q 2975 2850 2975 3272 
Q 2975 3691 2734 3919 
Q 2494 4147 2053 4147 
L 1259 4147 
z
M 628 4666 
L 2053 4666 
Q 2838 4666 3239 4311 
Q 3641 3956 3641 3272 
Q 3641 2581 3239 2228 
Q 2838 1875 2053 1875 
L 1259 1875 
L 1259 0 
L 628 0 
L 628 4666 
z
" transform="scale(0.015625)"/>
       <path id="DejaVuSans-2f" d="M 1625 4666 
L 2156 4666 
L 531 -594 
L 0 -594 
L 1625 4666 
z
" transform="scale(0.015625)"/>
       <path id="DejaVuSans-63" d="M 3122 3366 
L 3122 2828 
Q 2878 2963 2633 3030 
Q 2388 3097 2138 3097 
Q 1578 3097 1268 2742 
Q 959 2388 959 1747 
Q 959 1106 1268 751 
Q 1578 397 2138 397 
Q 2388 397 2633 464 
Q 2878 531 3122 666 
L 3122 134 
Q 2881 22 2623 -34 
Q 2366 -91 2075 -91 
Q 1284 -91 818 406 
Q 353 903 353 1747 
Q 353 2603 823 3093 
Q 1294 3584 2113 3584 
Q 2378 3584 2631 3529 
Q 2884 3475 3122 3366 
z
" transform="scale(0.015625)"/>
      </defs>
      <use xlink:href="#DejaVuSans-47"/>
      <use xlink:href="#DejaVuSans-46" x="77.490234"/>
      <use xlink:href="#DejaVuSans-4c" x="135.009766"/>
      <use xlink:href="#DejaVuSans-4f" x="187.097656"/>
      <use xlink:href="#DejaVuSans-50" x="265.808594"/>
      <use xlink:href="#DejaVuSans-20" x="326.111328"/>
      <use xlink:href="#DejaVuSans-2f" x="357.898438"/>
      <use xlink:href="#DejaVuSans-20" x="391.589844"/>
      <use xlink:href="#DejaVuSans-73" x="423.376953"/>
      <use xlink:href="#DejaVuSans-65" x="475.476562"/>
      <use xlink:href="#DejaVuSans-63" x="537"/>
     </g>
    </g>
   </g>
   <g id="line2d_77">
    <path d="M 71.669034 268.5973 
L 100.825506 239.619565 
L 117.880949 224.893799 
L 129.981978 209.194034 
L 139.368265 196.821935 
L 147.03742 190.054433 
L 153.521599 182.325676 
L 159.138449 182.281384 
L 164.092863 170.869245 
L 168.524737 165.710155 
L 172.533854 161.081238 
L 179.5608 153.511135 
L 185.580179 153.298379 
L 190.845029 154.571171 
L 195.523613 140.915519 
L 199.733513 136.992663 
L 205.350364 130.616393 
L 210.304777 133.911834 
L 214.736651 130.877409 
L 218.745769 130.474744 
L 223.558314 127.294671 
L 227.876348 127.12139 
L 232.716612 124.56866 
L 237.056944 167.200503 
L 241.735527 147.301331 
L 245.945428 167.313953 
L 250.377301 148.262687 
L 254.386419 144.217625 
L 258.54426 140.875932 
L 262.777719 136.310252 
L 267.030216 122.508611 
L 271.259372 145.597795 
L 275.434422 137.897131 
L 279.533773 126.113965 
L 283.542891 127.215099 
L 287.700732 122.269682 
L 291.934191 110.829133 
L 295.983969 110.977418 
L 300.048471 98.5051 
L 304.091119 96.674163 
L 308.237129 95.903452 
L 312.287641 97.32823 
L 316.3594 86.497957 
L 320.414017 88.001774 
L 324.526359 94.576788 
L 328.554217 90.254308 
L 332.571851 92.212089 
L 336.627388 89.014951 
L 340.678661 90.929712 
L 344.694162 86.449185 
L 348.709082 69.891751 
L 352.744564 70.353878 
L 356.763264 78.414879 
L 360.781091 73.109924 
L 364.80604 68.474353 
L 368.840332 78.343158 
L 372.84945 75.88075 
L 376.86748 74.670302 
L 380.887398 66.384573 
L 384.901425 64.951842 
L 388.923926 64.352405 
L 392.941153 63.729784 
L 396.959484 65.155945 
L 400.980325 67.177421 
L 405.001619 68.967498 
L 409.019037 67.000626 
L 413.039471 69.736292 
L 417.053159 62.704982 
L 421.071626 68.306833 
L 425.080743 67.644789 
L 429.094152 62.577413 
L 433.110292 70.19849 
L 437.125082 69.921794 
L 441.139357 62.145473 
L 445.150818 63.100471 
L 449.160468 62.940788 
L 453.171039 62.81156 
L 457.181477 62.59516 
" clip-path="url(#p1524c7b88e)" style="fill: none; stroke: #1f77b4; stroke-width: 1.5; stroke-linecap: square"/>
   </g>
   <g id="line2d_78">
    <path d="M 51.378125 56.402385 
L 497.778125 56.402385 
" clip-path="url(#p1524c7b88e)" style="fill: none; stroke-dasharray: 1.5,2.475; stroke-dashoffset: 0; stroke: #1f77b4; stroke-width: 1.5"/>
   </g>
   <g id="line2d_79">
    <path d="M 71.669034 339.838125 
L 100.825506 301.8435 
L 117.880949 279.135806 
L 129.981978 263.41314 
L 139.368265 250.880505 
L 147.03742 240.840767 
L 153.521599 232.556762 
L 159.138449 225.189412 
L 164.092863 218.48402 
L 168.524737 212.414988 
L 172.533854 207.07628 
L 179.5608 198.038875 
L 185.580179 190.077176 
L 190.845029 202.361504 
L 195.523613 196.172007 
L 199.733513 190.577893 
L 205.350364 182.312995 
L 210.304777 179.38089 
L 214.736651 173.50167 
L 218.745769 170.627209 
L 223.558314 164.360226 
L 227.876348 160.48579 
L 232.716612 154.192515 
L 237.056944 150.187976 
L 241.735527 145.676744 
L 245.945428 140.217246 
L 250.377301 135.806466 
L 254.386419 131.919644 
L 258.54426 127.668529 
L 262.777719 123.274028 
L 267.030216 118.295402 
L 271.259372 115.170151 
L 275.434422 110.678285 
L 279.533773 90.182612 
L 283.542891 85.238816 
L 287.700732 81.14103 
L 291.934191 75.509462 
L 295.983969 79.002428 
L 300.048471 74.798428 
L 304.091119 67.653337 
L 308.237129 64.050198 
L 312.287641 60.016571 
L 316.3594 55.425816 
L 320.414017 57.161098 
L 324.526359 55.950082 
L 328.554217 52.332006 
L 332.571851 52.526167 
L 336.627388 51.082029 
L 340.678661 46.299838 
L 344.694162 46.901238 
L 348.709082 43.30133 
L 352.744564 44.731032 
L 356.763264 42.654433 
L 360.781091 43.290511 
L 364.80604 42.004545 
L 368.840332 43.114937 
L 372.84945 42.005807 
L 376.86748 41.401112 
L 380.887398 40.02948 
L 384.901425 40.153868 
L 388.923926 39.743978 
L 392.941153 40.21011 
L 396.959484 38.929947 
L 400.980325 38.510436 
L 405.001619 38.953314 
L 409.019037 40.991305 
L 413.039471 40.840409 
L 417.053159 39.888124 
L 421.071626 38.231023 
L 425.080743 38.466329 
L 429.094152 38.152689 
L 433.110292 38.131057 
L 437.125082 38.271573 
L 441.139357 38.70947 
L 445.150818 39.238287 
L 449.160468 39.170777 
L 453.171039 43.253392 
L 457.181477 55.022868 
" clip-path="url(#p1524c7b88e)" style="fill: none; stroke: #ff7f0e; stroke-width: 1.5; stroke-linecap: square"/>
   </g>
   <g id="line2d_80">
    <path d="M 51.378125 37.438125 
L 497.778125 37.438125 
" clip-path="url(#p1524c7b88e)" style="fill: none; stroke-dasharray: 1.5,2.475; stroke-dashoffset: 0; stroke: #ff7f0e; stroke-width: 1.5"/>
   </g>
   <g id="line2d_81">
    <path d="M 138.509699 146.208343 
L 153.087935 135.096454 
L 161.615656 127.630666 
L 167.666171 123.995282 
L 172.359314 120.530007 
L 176.193892 118.802642 
L 179.435981 119.239715 
L 182.244407 116.710539 
L 184.721613 114.190009 
L 186.93755 112.211211 
L 188.942109 110.094904 
L 190.772128 108.825679 
L 192.455582 109.100889 
L 194.014217 109.006075 
L 195.465272 110.045309 
L 196.822643 103.889452 
L 198.097696 101.735701 
L 199.299849 101.710769 
L 200.436988 102.081425 
L 201.515786 101.132732 
L 202.541938 102.699776 
L 204.455252 103.195742 
L 205.350364 96.317658 
L 206.20893 95.634292 
L 207.827571 96.857774 
L 208.592453 96.184871 
L 210.043508 99.281227 
L 210.733141 101.386249 
L 211.400878 92.550479 
L 212.048066 93.040958 
L 212.675932 91.317557 
L 213.285597 92.057369 
L 213.878085 91.870602 
L 214.454339 92.223338 
L 215.561539 95.376999 
L 216.094022 89.893147 
L 216.613356 88.095083 
L 217.615067 90.565046 
L 218.098581 87.084763 
L 218.571229 89.724226 
L 219.033488 91.374969 
L 219.485806 93.688704 
L 219.9286 86.607407 
L 220.362264 87.027635 
L 221.203654 89.466391 
L 221.612054 86.110312 
L 222.012675 88.754952 
L 222.791725 91.603575 
L 223.170689 85.875696 
L 223.542946 88.365067 
L 224.268257 89.482829 
L 224.621743 88.379654 
L 224.969387 90.47579 
L 225.311377 91.655487 
L 225.647896 93.379231 
L 225.979114 82.78596 
L 226.305198 85.961476 
L 226.626302 86.736867 
L 226.942578 85.36799 
L 227.254168 85.126954 
L 227.561209 87.86337 
L 227.863833 86.320651 
L 228.162163 87.667789 
L 228.456321 81.754717 
L 228.746422 85.378567 
L 229.032575 86.705969 
L 229.314887 84.619532 
L 229.59346 84.633952 
L 230.139775 88.241978 
L 230.407702 87.179196 
L 230.672258 82.1209 
L 230.933528 85.129495 
L 231.191592 86.433134 
L 231.446528 87.031175 
L 231.69841 84.224636 
L 231.947312 86.596243 
L 232.193302 87.841974 
L 232.676817 84.266474 
L 232.914468 86.527354 
L 233.381864 87.47757 
L 233.611724 86.669134 
L 233.839099 86.316044 
L 234.064041 86.61915 
L 234.286604 88.172343 
L 234.506836 80.312735 
L 234.940499 83.958462 
L 235.154024 84.557878 
L 235.365402 81.901976 
L 235.574677 84.187811 
L 235.987081 86.676531 
L 236.391554 82.682146 
L 236.788395 84.600806 
L 237.177887 83.625414 
L 237.560296 86.569153 
L 237.935877 82.867092 
L 238.304868 84.638142 
L 238.667497 83.666451 
L 239.023979 85.888274 
L 239.374519 83.697514 
L 240.058545 85.565572 
L 240.392393 87.957354 
L 240.721024 81.186066 
L 241.044599 82.87827 
L 241.363271 81.948387 
L 241.677186 84.142885 
L 241.986485 81.361552 
L 242.291301 82.722882 
L 242.591763 81.844783 
L 242.887992 84.198889 
L 243.180107 81.562727 
L 243.468221 82.590891 
L 243.752441 81.836623 
L 244.032871 83.72886 
L 244.309611 81.827101 
L 244.852401 83.528284 
L 245.118632 85.699653 
L 245.381535 80.898064 
L 245.641192 81.896701 
L 245.897682 81.263513 
L 246.151082 82.386213 
L 246.401465 80.996738 
L 246.648903 82.041289 
L 247.135212 82.521602 
L 247.374214 80.865393 
L 247.610531 81.835013 
L 247.844221 81.179048 
L 248.075344 82.338043 
L 248.303954 80.683383 
L 248.753853 82.054133 
L 248.975244 84.036971 
L 249.194329 80.868587 
L 249.411155 81.624677 
L 249.625768 80.974246 
L 249.838214 81.881136 
L 250.048535 80.898947 
L 250.360125 80.269782 
L 250.667167 81.980847 
L 250.96979 81.677719 
L 251.26812 81.21082 
L 251.562278 79.886736 
L 251.852379 81.154889 
L 252.138532 81.755954 
L 252.699417 80.237686 
L 252.974349 81.644368 
L 253.245732 81.170781 
L 253.513659 80.965633 
L 253.778215 80.122717 
L 254.039485 81.387224 
L 254.297549 81.277077 
L 254.552485 80.498315 
L 254.804367 80.096003 
L 255.053269 82.195947 
L 255.29926 80.894001 
L 255.542406 80.749615 
L 255.782774 80.276243 
L 256.020426 81.473118 
L 256.255422 81.22269 
L 256.487822 80.731692 
L 256.717681 80.961706 
L 256.945056 81.481044 
L 257.169999 80.846946 
L 257.392561 80.651187 
L 257.612793 80.011553 
L 257.830742 81.112887 
L 258.046457 81.011005 
L 258.471359 80.163396 
L 258.680634 81.197391 
L 258.956467 80.984574 
L 259.228729 81.166669 
L 259.497511 80.803251 
L 260.283844 81.044944 
L 260.539555 81.051618 
L 260.792194 81.897267 
L 261.041834 81.088657 
L 261.288546 81.183562 
L 261.532397 80.980552 
L 261.773454 81.154661 
L 262.011779 80.846439 
L 262.247433 80.895645 
L 262.480477 80.804062 
L 262.710966 80.968542 
L 262.938957 84.504513 
L 263.164503 80.946237 
L 263.387655 80.619099 
L 263.608465 80.825604 
L 263.826981 80.688777 
L 264.257317 80.968388 
L 264.469228 81.739605 
L 264.679025 81.442575 
L 264.938361 79.916063 
L 265.447634 80.744672 
L 265.69772 80.965791 
L 265.944867 80.326888 
L 266.430615 80.74981 
L 266.669345 80.668608 
L 266.905397 79.967968 
L 267.138828 80.698366 
L 267.369697 80.47672 
L 267.598059 80.803617 
L 267.823968 80.124012 
L 268.047477 80.228148 
L 268.487492 80.865006 
L 268.704095 80.227807 
L 268.918489 80.613455 
L 269.130721 81.81114 
L 269.340832 80.885545 
L 269.590225 80.441848 
L 269.836696 80.829502 
L 270.080312 80.505471 
L 270.321139 80.9289 
L 270.559239 80.781735 
L 270.794674 80.773027 
L 271.027502 80.63445 
L 271.257781 80.91261 
L 271.485566 80.665675 
L 271.710911 80.880157 
L 271.933866 80.563743 
L 272.154483 80.836152 
L 272.37281 80.569459 
L 272.588893 80.763207 
L 272.80278 80.560844 
L 273.014512 80.84754 
L 273.224135 80.507824 
L 273.466083 80.508187 
L 273.705279 80.70637 
L 274.175661 80.422021 
L 274.406966 80.191488 
L 274.635754 80.891369 
L 274.86208 80.622098 
L 275.085996 80.577385 
L 275.307554 80.231814 
L 275.526802 80.740636 
L 276.171157 80.183154 
L 276.381628 80.620481 
L 277.317836 80.648293 
L 278.21414 80.570001 
L 278.648364 80.859285 
L 278.862159 80.640305 
L 279.073803 80.608791 
L 279.283338 80.772468 
L 279.516597 80.211425 
L 279.975494 80.497329 
L 280.201242 80.508685 
L 280.424592 80.20855 
L 281.080755 80.539908 
L 281.295004 80.063852 
L 281.717064 80.468159 
L 281.947933 80.256575 
L 282.176295 80.470254 
L 282.402204 80.173809 
L 282.625713 80.44462 
L 282.846871 80.224062 
L 283.065728 80.458634 
L 283.28233 80.183365 
L 283.496725 80.392113 
L 283.708957 79.907113 
L 283.919068 80.20989 
L 284.147791 81.256447 
L 284.597908 84.857928 
L 285.255522 84.372945 
L 285.470235 83.538221 
L 285.682778 84.728845 
L 285.893195 84.419479 
L 286.120365 84.64571 
L 286.345107 84.46132 
L 287.005275 84.287662 
L 287.220805 84.018541 
L 287.434149 84.056862 
L 287.64535 84.306462 
L 287.871783 84.043365 
L 288.095804 84.291396 
L 288.317465 83.923274 
L 288.536813 84.02107 
L 288.753897 84.275344 
L 288.968764 84.050953 
L 289.61645 84.498618 
L 289.838509 83.995597 
L 290.058248 84.370444 
L 290.275715 83.977988 
L 290.490956 84.517588 
L 290.704016 83.997103 
L 290.91494 84.247067 
L 291.138607 84.007747 
L 291.578929 83.902563 
L 291.795681 84.081683 
L 292.874479 84.267646 
L 293.091865 84.438792 
L 296.108762 83.987045 
L 296.318501 84.056612 
L 296.754531 83.958175 
L 296.969202 84.072938 
L 297.181704 79.966142 
L 297.828218 79.927128 
L 298.042941 80.255332 
L 298.255494 81.184263 
L 298.46592 79.945985 
L 299.115329 80.86513 
L 299.537389 83.680453 
L 299.755133 83.898687 
L 299.970647 85.16938 
L 300.183974 85.666754 
L 300.613699 88.231374 
L 300.829992 88.533879 
L 301.256017 90.803332 
L 301.68257 92.448841 
L 302.109449 93.584471 
L 303.604475 99.223231 
L 304.242468 99.339613 
L 304.456153 100.180955 
L 305.092123 99.361416 
L 305.51565 99.586168 
L 306.157165 99.442009 
L 306.366727 99.627658 
L 306.581341 99.647568 
L 306.793787 99.510113 
L 307.219253 99.588623 
L 307.432219 99.737301 
L 307.858488 99.610022 
L 308.498368 99.830111 
L 308.92288 99.369716 
L 309.562542 99.384612 
L 310.201305 99.350656 
L 313.174612 99.363165 
L 313.386822 99.332697 
L 313.809973 99.897327 
L 314.020897 99.506875 
L 314.446299 99.411712 
L 315.501579 99.451805 
L 315.714727 99.364329 
L 315.925736 99.467022 
L 316.139168 99.336918 
L 316.350456 99.411255 
L 316.984899 99.335354 
L 317.617615 99.392401 
L 317.82714 99.792767 
L 318.038727 99.811011 
L 318.248206 99.402541 
L 319.093362 99.499368 
L 319.517008 99.358078 
L 320.361718 99.327979 
L 322.683104 99.387782 
L 322.893886 99.66645 
L 325.003049 99.656156 
L 325.422734 100.586873 
L 325.633792 99.775745 
L 326.0553 99.741491 
L 326.265719 99.821277 
L 326.688556 99.718461 
L 327.319238 99.812957 
L 327.53059 99.825565 
L 327.742441 99.672031 
L 328.162398 99.648963 
L 328.373062 99.43071 
L 329.004939 99.464107 
L 329.424694 99.378866 
L 330.056516 99.460656 
L 330.690278 99.392586 
L 330.899598 99.448369 
L 331.109072 99.387554 
L 331.318676 99.484038 
L 331.528386 99.359976 
L 331.948027 99.46137 
L 332.157914 100.013428 
L 332.367815 99.545605 
L 332.57771 99.410274 
L 332.997401 99.494921 
L 333.207158 99.779526 
L 333.6264 99.444338 
L 333.83585 99.403188 
L 334.256233 99.498479 
L 334.677737 99.581458 
L 334.888142 99.651656 
L 335.098297 99.389165 
L 335.308189 99.575326 
L 335.727134 99.333292 
L 335.937925 99.444558 
L 336.148369 99.720069 
L 336.358456 99.673009 
L 336.568175 99.842558 
L 336.777518 99.456115 
L 337.198355 99.523876 
L 337.408123 99.445426 
L 337.617447 99.542631 
L 337.82793 99.498219 
L 338.037922 99.575886 
L 338.247418 99.510227 
L 338.457975 99.596084 
L 338.667993 99.416021 
L 339.297771 99.517279 
L 339.717205 99.368447 
L 340.346803 99.424501 
L 340.557266 99.325649 
L 341.187296 99.735442 
L 341.397713 99.415539 
L 342.237237 99.519319 
L 342.446512 99.600605 
L 342.866525 99.49454 
L 343.075938 99.573225 
L 343.285772 99.385179 
L 343.705354 99.433714 
L 343.915063 99.332168 
L 344.335406 99.460917 
L 344.544809 99.352331 
L 345.593971 99.373596 
L 345.8034 100.01285 
L 346.012948 100.048765 
L 346.432304 99.520793 
L 346.851855 99.784237 
L 347.061649 99.746212 
L 347.271427 99.553874 
L 347.900473 99.711313 
L 348.319407 99.44512 
L 348.528691 99.474122 
L 348.738791 99.824443 
L 348.948711 99.443977 
L 349.577247 99.470493 
L 349.996915 99.406186 
L 350.206333 99.635427 
L 351.464704 99.683627 
L 352.513027 99.643719 
L 354.190624 99.698771 
L 354.610419 100.15493 
L 354.81973 99.95168 
L 355.029112 100.016353 
L 355.447998 99.944815 
L 356.494951 100.108241 
L 356.704797 100.031394 
L 356.914521 100.13692 
L 357.543419 100.103677 
L 357.753106 100.332538 
L 357.962579 100.137791 
L 359.638753 100.251676 
L 359.848446 100.40898 
L 360.057749 100.378825 
L 360.267207 100.546879 
L 360.476794 100.437175 
L 360.686488 100.527112 
L 360.896263 100.487167 
L 361.733665 100.765375 
L 362.571811 100.813313 
L 362.781396 100.46369 
L 363.200189 100.67661 
L 363.409841 100.711518 
L 363.619314 100.549541 
L 363.828594 100.552082 
L 364.24743 100.733687 
L 364.876038 100.927636 
L 365.713954 101.186448 
L 366.132883 101.556774 
L 366.551854 101.768632 
L 367.180034 102.07641 
L 367.808593 103.023601 
L 369.065345 105.233336 
L 369.484329 105.905829 
L 369.693919 106.996946 
L 369.903194 107.238772 
L 370.11249 107.072933 
L 370.321785 108.14549 
L 370.53106 108.478051 
L 370.740632 110.396048 
L 370.950137 110.218562 
L 371.578395 113.004264 
L 371.787772 113.083872 
L 371.997307 114.04784 
L 372.206661 114.135992 
L 372.416129 114.487585 
L 372.625687 115.446097 
L 372.835007 115.68508 
L 373.044379 115.672248 
L 373.463187 117.08526 
L 373.672582 117.324394 
L 374.091253 118.462757 
L 374.300776 118.997879 
L 374.510203 119.124117 
L 374.719517 119.563771 
L 375.138284 120.886443 
L 375.557183 120.956642 
L 375.975783 122.163444 
L 376.18512 121.332877 
L 376.603765 123.590028 
L 376.813285 124.24459 
L 377.022737 123.855323 
L 377.232103 124.638826 
L 377.441611 124.411624 
L 377.860471 125.560593 
L 378.069787 125.551417 
L 378.279158 124.439867 
L 378.488563 124.762057 
L 378.697981 126.754363 
L 378.907391 126.362949 
L 379.116772 126.618518 
L 379.326105 126.025839 
L 379.535593 126.561423 
L 379.744991 126.516498 
L 379.954281 126.022634 
L 380.58239 127.625668 
L 380.791698 127.981248 
L 381.001012 127.962826 
L 381.210312 128.556529 
L 381.419779 128.03442 
L 381.838521 127.841825 
L 382.047955 128.341447 
L 382.257273 128.243376 
L 382.46665 128.850896 
L 382.676064 128.913606 
L 382.885494 128.634245 
L 383.094919 128.562332 
L 383.304318 129.466551 
L 383.513671 129.116988 
L 383.722961 129.404906 
L 384.141629 129.617521 
L 384.560335 129.429472 
L 384.979086 128.843938 
L 385.397719 130.04573 
L 385.607108 129.686726 
L 385.816408 129.669967 
L 386.23515 130.221139 
L 386.444549 129.913272 
L 386.863301 130.382608 
L 387.072613 130.325379 
L 387.28201 130.404035 
L 387.491318 130.337644 
L 387.70067 131.04273 
L 387.910043 130.595664 
L 388.119417 130.719995 
L 388.538084 131.304756 
L 388.747482 131.410719 
L 388.9568 131.387199 
L 389.794272 132.12526 
L 390.003587 131.912835 
L 390.212976 132.638578 
L 390.63162 132.888265 
L 390.840967 133.472675 
L 391.050304 133.641965 
L 391.259609 133.956243 
L 391.887639 135.708986 
L 392.096992 135.695704 
L 392.306336 136.32542 
L 392.51565 135.212305 
L 392.725034 135.802709 
L 392.934348 137.111461 
L 393.143689 136.349009 
L 393.562369 137.602628 
L 393.771667 137.191785 
L 393.981024 138.051905 
L 394.190305 137.846438 
L 394.399603 138.330564 
L 394.608896 140.461633 
L 394.818272 141.415412 
L 395.027601 139.380939 
L 395.236969 140.769756 
L 395.446251 139.77079 
L 395.655533 141.425973 
L 396.074212 140.486461 
L 396.283568 141.548513 
L 396.49294 141.180856 
L 396.702307 141.350746 
L 396.911649 141.740587 
L 397.120946 141.791481 
L 397.539612 142.286637 
L 397.748939 143.126021 
L 397.958235 143.200206 
L 398.167572 142.727563 
L 398.586283 143.286775 
L 398.795616 143.006082 
L 399.004906 143.46185 
L 399.214223 143.307005 
L 399.423544 143.608851 
L 399.63285 143.52576 
L 399.842204 144.104843 
L 400.051501 143.462905 
L 400.470097 144.302957 
L 400.679436 143.947534 
L 400.888721 143.936841 
L 401.098012 144.696208 
L 401.307288 144.457586 
L 401.72595 144.799346 
L 401.935293 144.536397 
L 402.144616 145.215971 
L 402.3539 144.629181 
L 402.563199 145.375762 
L 402.772493 145.085928 
L 402.981834 145.503805 
L 403.191129 145.184141 
L 403.400428 145.526618 
L 403.609713 145.599346 
L 403.819033 145.873942 
L 404.237691 145.730374 
L 404.446989 146.649285 
L 404.656307 146.076805 
L 404.865624 146.448392 
L 405.074919 145.81402 
L 405.284238 146.494964 
L 405.702864 146.270868 
L 405.912194 146.873744 
L 406.121529 146.352643 
L 406.330847 146.883894 
L 406.540129 147.111783 
L 406.749417 146.354178 
L 406.958749 146.893497 
L 407.168046 146.934088 
L 407.377345 146.654416 
L 407.586628 147.272443 
L 407.795931 146.818815 
L 408.214516 146.814045 
L 408.423814 147.255893 
L 408.633107 147.109481 
L 408.842429 146.802251 
L 409.051705 147.062104 
L 409.261023 146.997796 
L 409.679596 147.15687 
L 410.098196 147.592528 
L 410.307518 147.273687 
L 410.516812 147.51078 
L 410.935381 146.837642 
L 411.144667 147.715685 
L 411.353942 147.490116 
L 411.563236 147.889271 
L 411.772526 147.699164 
L 412.191157 148.513814 
L 412.400457 147.77503 
L 412.609765 149.06898 
L 412.81906 148.185735 
L 413.23767 149.019611 
L 413.446987 149.595652 
L 413.656299 148.7581 
L 413.865586 149.303698 
L 414.074871 149.000084 
L 414.284176 149.597094 
L 414.493481 149.39589 
L 414.702765 149.713188 
L 414.912049 149.079077 
L 415.121353 149.300993 
L 415.330658 150.070798 
L 415.539941 149.812386 
L 415.958525 149.708184 
L 416.167822 150.433042 
L 416.377135 150.494591 
L 416.795724 149.614093 
L 417.005034 150.462964 
L 417.214315 150.620965 
L 417.423621 150.245698 
L 417.63293 149.490202 
L 418.051512 150.247545 
L 418.260815 150.728344 
L 418.679413 151.041579 
L 418.888702 150.72418 
L 419.09799 151.45755 
L 419.307291 150.363067 
L 419.725883 150.566678 
L 419.935165 149.754413 
L 420.144444 151.058611 
L 420.353731 150.602603 
L 420.563036 151.282319 
L 420.98162 150.964104 
L 421.19092 151.149073 
L 421.400217 150.87701 
L 421.609492 151.416137 
L 422.237367 151.832877 
L 422.655945 151.720845 
L 422.865246 152.322706 
L 423.074527 152.333783 
L 423.283823 152.213937 
L 423.493114 152.522394 
L 423.702407 152.377762 
L 423.911709 152.005667 
L 424.33028 152.755132 
L 424.539562 152.599182 
L 424.748849 153.062759 
L 424.958147 153.157728 
L 425.167433 152.872221 
L 425.585995 153.425317 
L 425.795278 153.088256 
L 426.004568 153.86076 
L 426.213844 154.128511 
L 426.632419 153.629154 
L 426.841699 154.446422 
L 427.050979 153.829659 
L 427.26026 153.763529 
L 427.469545 154.505943 
L 427.678836 154.247268 
L 427.888113 154.512698 
L 428.097399 154.018681 
L 428.306674 154.594455 
L 428.515961 153.962449 
L 428.725239 154.43637 
L 429.143813 154.383415 
L 429.562381 155.924204 
L 429.771665 156.973827 
L 429.980941 156.286847 
L 430.399513 156.605564 
L 430.608805 156.349821 
L 430.818088 156.759859 
L 431.027379 156.163403 
L 431.236657 154.161693 
L 431.445941 154.691849 
L 431.655228 154.46212 
L 431.864516 155.20317 
L 432.073804 156.620901 
L 432.283088 156.659561 
L 432.492366 156.227488 
L 432.701653 157.037849 
L 432.910929 156.696018 
L 433.120209 157.023683 
L 433.329488 156.637564 
L 433.538764 156.663455 
L 433.74805 155.688069 
L 433.957325 155.567538 
L 434.166602 154.303806 
L 434.375877 156.117078 
L 434.585162 155.966507 
L 434.794453 153.960609 
L 435.003728 155.609777 
L 435.213015 156.306548 
L 436.050134 157.102838 
L 436.259418 156.729018 
L 436.677981 156.770072 
L 437.096551 156.033661 
L 437.515121 156.67515 
L 437.724405 156.212682 
L 437.933683 155.312269 
L 438.142964 155.945281 
L 438.352239 156.14475 
L 438.561516 155.735897 
L 438.7708 156.830919 
L 438.980084 156.485917 
L 439.189361 156.800798 
L 439.607915 156.717666 
L 439.817201 157.012581 
L 440.026487 156.626732 
L 440.235766 156.896739 
L 440.654339 156.530587 
L 440.863617 157.019734 
L 441.282185 156.333989 
L 441.491469 157.12095 
L 441.910028 157.361592 
L 442.119307 157.344127 
L 442.328586 157.543578 
L 442.537866 158.761847 
L 442.747148 158.440575 
L 442.956433 158.680168 
L 443.165712 158.4872 
L 443.374997 159.043419 
L 443.584278 158.492036 
L 443.793555 158.2981 
L 444.002838 158.745495 
L 444.212118 158.635369 
L 444.421395 158.999697 
L 444.630678 159.046421 
L 444.839957 158.510018 
L 445.04924 158.817825 
L 445.258518 158.585098 
L 445.67708 158.616489 
L 445.886361 158.89036 
L 446.095641 158.856138 
L 446.304917 159.451398 
L 446.723478 158.661984 
L 446.932757 158.633975 
L 447.142033 158.77849 
L 447.560589 159.907423 
L 447.769871 159.592998 
L 447.979147 159.582467 
L 448.188429 160.090216 
L 448.397705 159.442272 
L 448.60698 159.393307 
L 448.816259 159.711019 
L 449.025537 159.725157 
L 449.234818 159.977609 
L 449.444097 159.463232 
L 449.653378 159.772622 
L 449.862657 159.557393 
L 450.071934 159.731097 
L 450.490493 159.744374 
L 450.69977 159.819967 
L 450.909048 159.431402 
L 451.327608 159.796888 
L 451.746163 159.549328 
L 451.95544 159.842244 
L 452.164718 159.757475 
L 452.373998 160.015795 
L 452.58328 159.648691 
L 452.792556 159.558104 
L 453.001834 160.090766 
L 453.211113 159.57602 
L 453.420393 159.623257 
L 453.629672 159.837589 
L 453.83895 159.685251 
L 454.466783 160.205455 
L 454.676062 160.500074 
L 454.885337 159.757984 
L 455.094615 159.623119 
L 455.303891 159.804024 
L 455.51317 159.722351 
L 455.72245 160.03448 
L 456.141002 159.925994 
L 456.350281 159.198774 
L 456.559559 156.921835 
L 456.978116 159.12267 
L 457.187392 159.083464 
L 457.39667 159.629941 
L 457.815227 158.469817 
L 458.024503 158.8795 
L 458.233779 158.304522 
L 458.652329 159.544069 
L 458.861604 159.742118 
L 459.070883 159.732067 
L 459.280163 157.933507 
L 459.48944 157.985001 
L 459.698716 158.600989 
L 459.907993 157.942035 
L 460.117271 156.821915 
L 460.326549 157.184182 
L 460.535824 156.736889 
L 460.745099 156.72106 
L 460.954378 158.169045 
L 461.163654 158.14944 
L 461.372932 156.742466 
L 461.582208 156.509154 
L 461.791485 156.482414 
L 462.000763 156.704777 
L 462.210042 158.85595 
L 462.419318 156.893137 
L 462.628594 156.622494 
L 462.837869 155.460018 
L 463.047144 155.487755 
L 463.25642 155.679158 
L 463.465696 156.049497 
L 463.884248 155.547618 
L 464.093524 155.61539 
L 464.302803 155.339271 
L 464.930634 155.573325 
L 465.139912 155.76168 
L 465.34919 155.615406 
L 465.558466 161.996143 
L 465.767743 155.880296 
L 466.186296 155.955658 
L 466.395572 155.74677 
L 467.23268 155.914648 
L 467.651232 155.595851 
L 467.860509 156.060335 
L 468.279064 155.75013 
L 468.48834 156.074592 
L 468.697615 156.096957 
L 469.116171 155.935934 
L 469.325447 156.489899 
L 469.534723 155.957387 
L 469.953275 155.886284 
L 470.581105 155.873986 
L 471.627483 155.860199 
L 472.255309 155.84008 
L 473.929521 155.945486 
L 474.348073 155.754371 
L 474.975903 155.762257 
L 475.394456 155.794543 
L 476.231561 155.739028 
L 476.650112 155.727342 
L 476.859389 155.828703 
L 477.487216 155.694685 
L 477.487216 155.694685 
" clip-path="url(#p1524c7b88e)" style="fill: none; stroke: #2ca02c; stroke-width: 1.5; stroke-linecap: square"/>
   </g>
   <g id="line2d_82">
    <path d="M 51.378125 155.829109 
L 497.778125 155.829109 
" clip-path="url(#p1524c7b88e)" style="fill: none; stroke-dasharray: 1.5,2.475; stroke-dashoffset: 0; stroke: #2ca02c; stroke-width: 1.5"/>
   </g>
   <g id="line2d_83">
    <path d="M 71.669034 328.462628 
L 115.403742 290.036575 
L 120.096885 285.991877 
L 123.931463 282.540943 
L 135.701274 272.230622 
L 137.614587 270.609605 
L 139.368265 269.185935 
L 140.986906 267.856264 
L 153.521599 256.853534 
L 155.17201 255.455497 
L 162.474222 248.865161 
L 162.752795 248.447981 
L 163.027727 248.383453 
L 169.146416 243.00708 
L 172.183314 240.39747 
L 177.468946 235.76675 
L 177.742092 235.332521 
L 178.011736 235.282299 
L 185.858752 228.528771 
L 186.672994 227.80988 
L 188.212604 226.407519 
L 188.458595 226.393665 
L 191.419316 223.802276 
L 203.954009 212.781477 
L 205.313818 211.597367 
L 205.748229 211.165846 
L 206.625418 210.415764 
L 207.566301 209.591358 
L 208.245331 209.066185 
L 221.031118 197.798997 
L 221.696148 197.205692 
L 225.169557 194.20208 
L 227.548505 192.105355 
L 228.186834 191.57708 
L 234.415352 186.086087 
L 235.056427 185.563347 
L 236.549533 184.181853 
L 237.185925 183.653005 
L 238.036453 182.881806 
L 240.163443 181.035805 
L 246.546157 175.486145 
L 247.180232 174.98138 
L 247.605634 174.572417 
L 247.815152 175.372057 
L 252.463644 171.344493 
L 252.676343 170.322135 
L 252.886913 170.216761 
L 253.099168 169.904126 
L 253.521053 169.652716 
L 254.365124 168.905347 
L 254.786973 168.648657 
L 254.998212 168.366062 
L 255.210761 168.279277 
L 255.842439 167.714783 
L 256.053222 168.444215 
L 258.582069 166.168231 
L 258.793128 165.222761 
L 261.321733 163.252865 
L 261.954925 162.71454 
L 262.164274 163.533626 
L 262.373985 163.297935 
L 262.584029 163.532578 
L 262.794374 163.443499 
L 263.004991 163.20753 
L 263.215851 163.220211 
L 263.638189 162.585302 
L 264.268407 162.588931 
L 264.478011 162.14846 
L 264.687721 162.021307 
L 264.897512 162.072359 
L 265.107362 161.966823 
L 265.317249 160.133574 
L 265.52715 159.940764 
L 265.737046 160.022302 
L 265.946914 159.837881 
L 266.156736 159.896745 
L 266.366493 159.705534 
L 266.576165 159.732846 
L 266.785735 159.468469 
L 266.995185 159.537061 
L 267.415568 159.343125 
L 267.837072 159.129245 
L 268.257632 158.573177 
L 268.467524 158.649827 
L 268.677141 158.50212 
L 268.886469 158.49852 
L 269.09726 157.954698 
L 269.307704 158.15485 
L 269.517791 157.865237 
L 269.72751 158.878191 
L 270.35769 158.334554 
L 270.776782 157.980255 
L 271.827328 157.165543 
L 272.036802 156.026782 
L 276.235273 152.621593 
L 276.864689 152.115907 
L 278.962735 150.428695 
L 279.172283 151.6047 
L 279.381925 151.570876 
L 279.591639 151.25924 
L 279.801401 151.412428 
L 280.01119 150.848113 
L 280.220984 151.046697 
L 280.430763 150.807978 
L 280.640506 151.043218 
L 280.850194 149.248094 
L 281.059808 149.11815 
L 281.26933 149.327928 
L 281.688026 148.949725 
L 281.898126 149.459956 
L 282.108046 149.032517 
L 282.736582 148.922377 
L 285.672362 146.659813 
L 286.092103 146.33536 
L 286.511332 146.050902 
L 287.559805 145.201601 
L 288.397877 144.630848 
L 288.607333 144.519165 
L 289.02624 144.091768 
L 290.492868 142.984347 
L 290.702754 143.075877 
L 290.912442 144.712699 
L 291.121914 143.962841 
L 291.331771 144.43663 
L 292.379316 143.857148 
L 292.58859 143.585211 
L 293.007781 142.315655 
L 293.845823 141.789685 
L 294.055598 141.363318 
L 294.264899 141.511335 
L 295.311688 140.487689 
L 295.521459 140.449713 
L 295.731147 140.19554 
L 295.940731 140.249711 
L 299.711189 137.62561 
L 300.130039 137.968078 
L 300.339369 137.617826 
L 300.549008 137.741073 
L 300.967928 137.57384 
L 301.177559 137.442682 
L 301.596295 137.017786 
L 302.22468 136.529333 
L 302.434132 136.120716 
L 303.271825 135.641353 
L 303.481121 136.191752 
L 305.365996 134.940409 
L 305.575464 134.28587 
L 305.785022 135.01268 
L 306.622522 134.640728 
L 306.831917 134.35621 
L 307.041279 134.372293 
L 307.460111 133.96031 
L 307.669538 133.393059 
L 308.088312 133.112047 
L 308.507029 133.616122 
L 309.135118 133.302063 
L 309.344455 133.090738 
L 309.553789 133.20929 
L 309.97262 133.086724 
L 310.600946 132.651128 
L 311.647898 132.137841 
L 311.857316 132.199035 
L 312.48544 131.716006 
L 312.904326 131.61027 
L 313.113616 131.350392 
L 313.532444 131.459562 
L 313.951033 131.186526 
L 314.160347 131.24881 
L 314.369647 131.069795 
L 314.788523 131.003565 
L 314.997856 130.843444 
L 315.20729 130.123026 
L 315.416608 130.035878 
L 315.625985 130.434202 
L 316.044829 130.305064 
L 316.463653 130.589263 
L 316.673007 130.307562 
L 316.882296 130.454403 
L 317.091682 130.399989 
L 317.300964 130.472629 
L 317.71967 130.218151 
L 318.766443 129.733757 
L 319.185097 129.820791 
L 319.394485 129.763555 
L 319.603884 126.258456 
L 319.813275 131.804903 
L 320.231948 131.902076 
L 320.441345 131.714356 
L 320.650654 130.072588 
L 320.860005 131.693249 
L 321.069378 129.877205 
L 321.278752 131.602891 
L 321.697419 127.92968 
L 321.906817 127.115553 
L 322.116135 128.552613 
L 322.325494 127.112069 
L 322.534873 127.197633 
L 322.744251 127.074442 
L 323.162923 127.034292 
L 323.372311 127.018168 
L 323.581617 126.841278 
L 323.790955 128.056136 
L 324.000302 127.661113 
L 324.418944 127.711676 
L 324.837633 127.509914 
L 325.046975 127.523073 
L 325.256327 126.848143 
L 325.465671 127.590476 
L 325.674986 126.395819 
L 326.093683 127.494797 
L 326.512371 126.298 
L 326.721704 127.432566 
L 326.931003 126.046981 
L 327.140359 126.468684 
L 327.34964 126.030939 
L 327.558938 127.536826 
L 327.768231 126.488975 
L 327.977607 126.283407 
L 328.186936 127.363487 
L 328.396304 126.054189 
L 328.605587 125.912591 
L 328.814868 127.4027 
L 329.024229 125.955142 
L 329.233547 127.560326 
L 329.442903 126.28061 
L 329.652275 125.999179 
L 329.861642 127.353236 
L 330.070984 125.932271 
L 330.280281 125.942185 
L 330.489609 126.123701 
L 330.698947 126.046301 
L 330.908274 126.182593 
L 331.11757 125.980199 
L 331.326907 125.939454 
L 331.745618 126.147374 
L 331.954951 127.70545 
L 332.582879 127.725512 
L 333.001539 127.861762 
L 333.210837 127.561538 
L 333.420141 127.795636 
L 333.629432 127.623568 
L 334.048056 127.753705 
L 334.257347 127.480216 
L 334.466623 127.595623 
L 334.675943 127.538248 
L 335.303951 127.698917 
L 335.513235 127.6932 
L 335.722535 127.49003 
L 336.14117 127.444995 
L 336.350464 127.294994 
L 336.559764 127.603796 
L 336.769048 127.341858 
L 336.978368 127.47456 
L 337.187701 127.276567 
L 337.606324 127.319549 
L 337.815642 127.597279 
L 338.024959 124.399714 
L 338.443573 124.246817 
L 338.652895 124.433138 
L 338.8622 124.312193 
L 339.071529 124.558264 
L 339.490182 124.587389 
L 339.699464 124.410528 
L 339.908752 127.035693 
L 340.118085 126.522181 
L 340.53668 126.162514 
L 340.955266 125.831639 
L 341.164569 126.056158 
L 341.373851 125.48332 
L 341.792442 125.566982 
L 342.001764 125.920816 
L 342.21104 125.680501 
L 342.420358 126.012161 
L 342.629645 126.908703 
L 342.838932 126.915286 
L 343.048251 128.464734 
L 343.257531 128.938589 
L 343.466854 128.027342 
L 343.676147 125.920267 
L 343.885441 122.556566 
L 344.094716 126.865061 
L 344.304002 124.736317 
L 344.722571 124.955675 
L 344.931861 128.900345 
L 345.141175 129.158189 
L 345.350492 132.350475 
L 345.559792 132.384098 
L 345.7691 124.250579 
L 345.978395 137.307559 
L 346.187704 133.991778 
L 346.397005 133.434358 
L 346.606322 138.333899 
L 346.815634 134.583742 
L 347.024921 135.582527 
L 347.234206 133.705804 
L 347.443511 134.967974 
L 347.8621 134.08725 
L 348.071384 135.158062 
L 348.280688 130.72574 
L 348.489993 131.686109 
L 348.699276 133.971545 
L 348.908559 131.228213 
L 349.11786 131.601526 
L 349.327158 131.580049 
L 349.536471 131.080078 
L 349.745778 131.213188 
L 349.955059 133.873392 
L 350.164369 132.570404 
L 350.582956 125.790628 
L 350.792265 130.502512 
L 351.001557 132.283899 
L 351.210847 127.719615 
L 351.42015 137.287262 
L 351.629446 134.293706 
L 351.838748 129.079521 
L 352.048037 129.149744 
L 352.257325 130.06969 
L 352.466626 130.470887 
L 352.67592 129.526933 
L 352.885218 129.326736 
L 353.0945 128.963152 
L 353.513066 127.910498 
L 353.722371 128.649907 
L 353.931674 130.562673 
L 354.140955 127.605578 
L 354.350255 127.186592 
L 354.559552 127.974976 
L 354.97812 126.361337 
L 355.187408 126.449274 
L 355.396702 126.092752 
L 355.605981 126.582473 
L 355.815281 126.138439 
L 356.233862 126.626489 
L 356.443158 126.00363 
L 356.65245 127.009671 
L 356.861743 126.362031 
L 357.071044 126.354186 
L 357.280332 126.108988 
L 357.489615 131.738985 
L 357.908184 126.816779 
L 358.117482 127.427882 
L 358.326768 127.535765 
L 358.53605 129.112546 
L 358.74533 125.970617 
L 358.954613 129.139299 
L 359.163903 127.99877 
L 359.37318 128.368014 
L 359.58247 126.856276 
L 359.791754 129.294361 
L 360.001034 127.446722 
L 360.210314 127.158957 
L 360.419595 130.487026 
L 360.62888 126.138007 
L 361.047448 130.686204 
L 361.466009 126.418711 
L 361.675296 130.360814 
L 361.884574 130.493913 
L 362.093865 126.564653 
L 362.303148 128.076746 
L 362.512425 126.995017 
L 362.721716 130.604401 
L 362.931 127.161595 
L 363.140277 128.756604 
L 363.349566 126.035213 
L 363.558848 130.650797 
L 363.76814 125.311037 
L 363.977423 130.527021 
L 364.186714 129.314558 
L 364.395992 126.63489 
L 364.605276 126.511111 
L 364.814563 131.115085 
L 365.023852 131.915766 
L 365.233139 130.686287 
L 365.651701 126.640345 
L 365.860988 129.87536 
L 366.070264 125.781972 
L 366.279544 129.241107 
L 366.488823 126.449614 
L 366.698099 130.09812 
L 366.907385 129.663606 
L 367.11666 125.810636 
L 367.325937 126.005094 
L 367.535212 126.651132 
L 367.744497 129.315008 
L 367.953788 127.830875 
L 368.163063 125.388697 
L 368.37235 127.467074 
L 368.581629 126.596113 
L 368.790909 127.285459 
L 369.000186 128.380398 
L 369.209469 126.643761 
L 369.418753 126.633311 
L 369.628032 127.182339 
L 370.046598 125.857759 
L 370.255886 126.765619 
L 370.465174 125.476767 
L 370.674456 125.865163 
L 370.88374 125.151518 
L 371.093018 127.633557 
L 371.302299 124.909184 
L 371.511574 125.250384 
L 371.720851 127.157007 
L 371.930135 127.058257 
L 372.139419 125.4788 
L 372.348696 124.800345 
L 372.557971 125.453607 
L 372.976536 124.728267 
L 373.185823 126.5864 
L 373.395101 124.6022 
L 373.604387 124.521177 
L 373.813674 128.198186 
L 374.022952 126.203434 
L 374.232237 125.5502 
L 374.44152 125.586219 
L 374.650804 125.938092 
L 374.86008 125.263328 
L 375.069363 126.629066 
L 375.278643 126.478006 
L 375.487921 127.234904 
L 375.697201 124.463779 
L 375.906483 124.919199 
L 376.115768 125.038785 
L 376.325048 128.993391 
L 376.534332 124.280158 
L 376.743613 127.794626 
L 376.95289 125.617324 
L 377.162173 125.726345 
L 377.371454 124.602866 
L 377.58073 127.137253 
L 377.790013 126.312455 
L 377.999292 128.790579 
L 378.208575 125.280056 
L 378.417853 128.497887 
L 378.627133 124.880409 
L 378.836415 126.484563 
L 379.045697 125.733483 
L 379.254976 125.847254 
L 379.464252 127.224301 
L 379.673532 124.091827 
L 379.882813 124.11472 
L 380.092092 124.438411 
L 380.301368 124.331898 
L 380.510646 124.754818 
L 380.719924 123.968725 
L 381.138482 126.550898 
L 381.347764 125.301058 
L 381.55704 126.657057 
L 381.766316 126.917855 
L 382.184872 124.424677 
L 382.394153 125.38863 
L 382.603433 125.445939 
L 382.812714 126.003887 
L 383.021992 125.393716 
L 383.44055 127.999781 
L 383.649828 127.059952 
L 383.859105 125.325022 
L 384.068383 127.063067 
L 384.277665 124.995089 
L 384.486944 127.229031 
L 384.696221 125.289347 
L 384.905498 125.391799 
L 385.114775 126.524203 
L 385.324053 125.339162 
L 385.533333 125.403227 
L 385.742615 127.845879 
L 386.161169 124.5003 
L 386.370448 125.008874 
L 386.998285 123.832376 
L 387.416839 123.680236 
L 387.835397 123.707846 
L 388.044673 123.966434 
L 388.25395 123.771906 
L 388.463226 123.848636 
L 388.672506 123.65203 
L 388.881785 124.599123 
L 389.091061 123.753972 
L 389.300337 124.098556 
L 389.509616 123.650351 
L 389.928174 123.886172 
L 390.137451 123.597252 
L 390.346728 123.641062 
L 390.765285 124.028243 
L 390.974562 123.968287 
L 391.183838 123.626914 
L 391.393114 124.73605 
L 391.602389 127.237441 
L 391.811664 125.041478 
L 392.020939 124.89738 
L 392.230219 126.632977 
L 392.858051 123.561924 
L 393.067328 124.183178 
L 393.276607 123.771879 
L 393.485884 125.99045 
L 393.695159 125.978694 
L 393.904434 127.255581 
L 394.113713 126.568216 
L 394.322989 123.499931 
L 394.532268 125.939203 
L 394.741543 125.871229 
L 394.950821 126.511993 
L 395.160098 126.665461 
L 395.369377 123.995833 
L 395.578653 127.274975 
L 395.787929 124.663278 
L 395.997204 124.721166 
L 396.206479 123.514202 
L 396.415755 127.185991 
L 396.625031 126.051186 
L 396.834307 125.798421 
L 397.043584 123.512176 
L 397.25286 126.864942 
L 397.462138 126.530638 
L 397.671415 125.198417 
L 397.880692 124.786217 
L 398.089969 126.938744 
L 398.508525 123.473738 
L 398.717802 126.390049 
L 398.927078 123.56387 
L 399.136355 124.058579 
L 399.345631 125.615025 
L 399.554907 124.48405 
L 399.764184 124.692285 
L 399.973462 123.899075 
L 400.182737 124.41799 
L 400.60129 123.40977 
L 400.810567 123.509128 
L 401.019845 124.180291 
L 401.229122 123.521312 
L 401.647675 124.446895 
L 401.85695 123.391359 
L 402.484782 123.332727 
L 402.903335 123.281564 
L 403.11261 124.000426 
L 403.321887 125.410408 
L 403.531162 123.391034 
L 403.74044 127.65544 
L 403.949716 124.960386 
L 404.368267 123.287462 
L 404.786818 123.29509 
L 404.996093 123.537778 
L 405.205369 123.25879 
L 405.414644 123.413649 
L 405.623922 123.299534 
L 406.042476 123.551593 
L 406.251751 123.349764 
L 406.461027 126.122636 
L 406.670303 123.630135 
L 406.87958 124.071954 
L 407.088856 123.255565 
L 407.298132 124.598192 
L 407.507408 123.752663 
L 407.925962 124.756539 
L 408.135238 124.395942 
L 408.344514 123.277951 
L 408.553792 123.558938 
L 408.763067 123.218718 
L 409.390896 123.289347 
L 409.809447 123.202743 
L 411.27438 123.209349 
L 411.483655 123.216934 
L 411.692932 123.713149 
L 412.111484 123.260332 
L 412.320759 126.488332 
L 412.530034 123.212481 
L 412.739309 124.898797 
L 412.948585 123.262868 
L 413.367137 126.384354 
L 413.576414 126.09696 
L 413.994965 123.278623 
L 414.20424 123.542206 
L 414.413516 123.178261 
L 414.622792 125.406562 
L 414.832067 123.340969 
L 415.041342 124.099169 
L 415.250618 123.159961 
L 415.459894 124.536425 
L 415.878446 123.1809 
L 416.087722 123.179622 
L 416.296998 124.116573 
L 416.506274 123.172359 
L 416.715549 123.219706 
L 417.1341 123.149613 
L 417.552652 125.557952 
L 417.761928 123.344534 
L 417.971203 123.259615 
L 418.18048 123.360406 
L 418.389755 123.139127 
L 418.599031 123.258994 
L 418.808306 123.112543 
L 424.040195 123.147269 
L 424.24947 125.087414 
L 424.458745 124.690251 
L 424.66802 123.73872 
L 424.877295 124.713888 
L 425.086571 123.589169 
L 425.295846 123.166126 
L 426.132948 123.211066 
L 428.016426 123.284187 
L 428.225701 123.743292 
L 428.434977 123.817298 
L 428.853527 124.183681 
L 429.062802 125.059356 
L 429.272078 123.254885 
L 429.899904 123.067724 
L 430.109179 124.566902 
L 430.318454 124.458594 
L 430.52773 125.286942 
L 430.737005 123.859776 
L 431.155555 123.37683 
L 431.36483 123.303151 
L 431.574105 123.102173 
L 431.992656 123.063803 
L 432.201932 123.377326 
L 432.411207 123.050317 
L 432.829757 123.080646 
L 433.457583 123.055034 
L 434.294684 123.066261 
L 436.387435 123.095215 
L 436.59671 123.174577 
L 436.805985 123.045666 
L 437.01526 123.272718 
L 437.224535 123.876561 
L 437.433811 123.664614 
L 437.643086 124.892537 
L 438.061636 123.618083 
L 438.270911 123.584917 
L 438.480186 123.865678 
L 438.689461 123.235606 
L 439.108011 123.230733 
L 439.526561 123.261538 
L 439.735836 123.070168 
L 439.945111 123.058487 
L 440.363661 124.435642 
L 440.572936 124.747889 
L 440.782212 123.728851 
L 440.991486 123.569748 
L 441.619311 123.629385 
L 442.037862 124.488275 
L 442.456412 124.531706 
L 442.665687 123.873512 
L 443.293513 124.112961 
L 443.921338 124.068818 
L 444.130613 124.232606 
L 444.339888 124.214461 
L 444.549164 123.044108 
L 444.758438 124.34074 
L 445.176988 125.425752 
L 445.595539 125.551276 
L 445.804814 123.329429 
L 446.223364 123.028203 
L 447.479014 123.027402 
L 448.734664 123.024756 
L 449.362489 123.071467 
L 449.990315 123.026282 
L 451.45524 123.039895 
L 452.920165 123.092765 
L 454.803639 123.026699 
L 455.012914 123.763404 
L 455.222189 124.080666 
L 455.431464 123.351513 
L 456.059289 123.361297 
L 456.477839 123.483509 
L 456.896389 123.528142 
L 458.152039 123.765012 
L 458.361314 123.616978 
L 458.779864 123.871899 
L 458.989139 123.012919 
L 458.989139 123.012919 
" clip-path="url(#p1524c7b88e)" style="fill: none; stroke: #d62728; stroke-width: 1.5; stroke-linecap: square"/>
   </g>
   <g id="line2d_84">
    <path d="M 51.378125 121.554885 
L 497.778125 121.554885 
" clip-path="url(#p1524c7b88e)" style="fill: none; stroke-dasharray: 1.5,2.475; stroke-dashoffset: 0; stroke: #d62728; stroke-width: 1.5"/>
   </g>
   <g id="patch_3">
    <path d="M 51.378125 354.958125 
L 51.378125 22.318125 
" style="fill: none; stroke: #000000; stroke-width: 0.8; stroke-linejoin: miter; stroke-linecap: square"/>
   </g>
   <g id="patch_4">
    <path d="M 497.778125 354.958125 
L 497.778125 22.318125 
" style="fill: none; stroke: #000000; stroke-width: 0.8; stroke-linejoin: miter; stroke-linecap: square"/>
   </g>
   <g id="patch_5">
    <path d="M 51.378125 354.958125 
L 497.778125 354.958125 
" style="fill: none; stroke: #000000; stroke-width: 0.8; stroke-linejoin: miter; stroke-linecap: square"/>
   </g>
   <g id="patch_6">
    <path d="M 51.378125 22.318125 
L 497.778125 22.318125 
" style="fill: none; stroke: #000000; stroke-width: 0.8; stroke-linejoin: miter; stroke-linecap: square"/>
   </g>
   <g id="text_16">
    <!-- Performance (GFLOP/s) vs array length -->
    <g transform="translate(158.001875 16.318125)scale(0.12 -0.12)">
     <defs>
      <path id="DejaVuSans-6d" d="M 3328 2828 
Q 3544 3216 3844 3400 
Q 4144 3584 4550 3584 
Q 5097 3584 5394 3201 
Q 5691 2819 5691 2113 
L 5691 0 
L 5113 0 
L 5113 2094 
Q 5113 2597 4934 2840 
Q 4756 3084 4391 3084 
Q 3944 3084 3684 2787 
Q 3425 2491 3425 1978 
L 3425 0 
L 2847 0 
L 2847 2094 
Q 2847 2600 2669 2842 
Q 2491 3084 2119 3084 
Q 1678 3084 1418 2786 
Q 1159 2488 1159 1978 
L 1159 0 
L 581 0 
L 581 3500 
L 1159 3500 
L 1159 2956 
Q 1356 3278 1631 3431 
Q 1906 3584 2284 3584 
Q 2666 3584 2933 3390 
Q 3200 3197 3328 2828 
z
" transform="scale(0.015625)"/>
      <path id="DejaVuSans-6e" d="M 3513 2113 
L 3513 0 
L 2938 0 
L 2938 2094 
Q 2938 2591 2744 2837 
Q 2550 3084 2163 3084 
Q 1697 3084 1428 2787 
Q 1159 2491 1159 1978 
L 1159 0 
L 581 0 
L 581 3500 
L 1159 3500 
L 1159 2956 
Q 1366 3272 1645 3428 
Q 1925 3584 2291 3584 
Q 2894 3584 3203 3211 
Q 3513 2838 3513 2113 
z
" transform="scale(0.015625)"/>
      <path id="DejaVuSans-28" d="M 1984 4856 
Q 1566 4138 1362 3434 
Q 1159 2731 1159 2009 
Q 1159 1288 1364 580 
Q 1569 -128 1984 -844 
L 1484 -844 
Q 1016 -109 783 600 
Q 550 1309 550 2009 
Q 550 2706 781 3412 
Q 1013 4119 1484 4856 
L 1984 4856 
z
" transform="scale(0.015625)"/>
      <path id="DejaVuSans-29" d="M 513 4856 
L 1013 4856 
Q 1481 4119 1714 3412 
Q 1947 2706 1947 2009 
Q 1947 1309 1714 600 
Q 1481 -109 1013 -844 
L 513 -844 
Q 928 -128 1133 580 
Q 1338 1288 1338 2009 
Q 1338 2731 1133 3434 
Q 928 4138 513 4856 
z
" transform="scale(0.015625)"/>
      <path id="DejaVuSans-76" d="M 191 3500 
L 800 3500 
L 1894 563 
L 2988 3500 
L 3597 3500 
L 2284 0 
L 1503 0 
L 191 3500 
z
" transform="scale(0.015625)"/>
      <path id="DejaVuSans-79" d="M 2059 -325 
Q 1816 -950 1584 -1140 
Q 1353 -1331 966 -1331 
L 506 -1331 
L 506 -850 
L 844 -850 
Q 1081 -850 1212 -737 
Q 1344 -625 1503 -206 
L 1606 56 
L 191 3500 
L 800 3500 
L 1894 763 
L 2988 3500 
L 3597 3500 
L 2059 -325 
z
" transform="scale(0.015625)"/>
      <path id="DejaVuSans-6c" d="M 603 4863 
L 1178 4863 
L 1178 0 
L 603 0 
L 603 4863 
z
" transform="scale(0.015625)"/>
      <path id="DejaVuSans-67" d="M 2906 1791 
Q 2906 2416 2648 2759 
Q 2391 3103 1925 3103 
Q 1463 3103 1205 2759 
Q 947 2416 947 1791 
Q 947 1169 1205 825 
Q 1463 481 1925 481 
Q 2391 481 2648 825 
Q 2906 1169 2906 1791 
z
M 3481 434 
Q 3481 -459 3084 -895 
Q 2688 -1331 1869 -1331 
Q 1566 -1331 1297 -1286 
Q 1028 -1241 775 -1147 
L 775 -588 
Q 1028 -725 1275 -790 
Q 1522 -856 1778 -856 
Q 2344 -856 2625 -561 
Q 2906 -266 2906 331 
L 2906 616 
Q 2728 306 2450 153 
Q 2172 0 1784 0 
Q 1141 0 747 490 
Q 353 981 353 1791 
Q 353 2603 747 3093 
Q 1141 3584 1784 3584 
Q 2172 3584 2450 3431 
Q 2728 3278 2906 2969 
L 2906 3500 
L 3481 3500 
L 3481 434 
z
" transform="scale(0.015625)"/>
      <path id="DejaVuSans-74" d="M 1172 4494 
L 1172 3500 
L 2356 3500 
L 2356 3053 
L 1172 3053 
L 1172 1153 
Q 1172 725 1289 603 
Q 1406 481 1766 481 
L 2356 481 
L 2356 0 
L 1766 0 
Q 1100 0 847 248 
Q 594 497 594 1153 
L 594 3053 
L 172 3053 
L 172 3500 
L 594 3500 
L 594 4494 
L 1172 4494 
z
" transform="scale(0.015625)"/>
      <path id="DejaVuSans-68" d="M 3513 2113 
L 3513 0 
L 2938 0 
L 2938 2094 
Q 2938 2591 2744 2837 
Q 2550 3084 2163 3084 
Q 1697 3084 1428 2787 
Q 1159 2491 1159 1978 
L 1159 0 
L 581 0 
L 581 4863 
L 1159 4863 
L 1159 2956 
Q 1366 3272 1645 3428 
Q 1925 3584 2291 3584 
Q 2894 3584 3203 3211 
Q 3513 2838 3513 2113 
z
" transform="scale(0.015625)"/>
     </defs>
     <use xlink:href="#DejaVuSans-50"/>
     <use xlink:href="#DejaVuSans-65" x="56.677734"/>
     <use xlink:href="#DejaVuSans-72" x="118.201172"/>
     <use xlink:href="#DejaVuSans-66" x="159.314453"/>
     <use xlink:href="#DejaVuSans-6f" x="194.519531"/>
     <use xlink:href="#DejaVuSans-72" x="255.701172"/>
     <use xlink:href="#DejaVuSans-6d" x="295.064453"/>
     <use xlink:href="#DejaVuSans-61" x="392.476562"/>
     <use xlink:href="#DejaVuSans-6e" x="453.755859"/>
     <use xlink:href="#DejaVuSans-63" x="517.134766"/>
     <use xlink:href="#DejaVuSans-65" x="572.115234"/>
     <use xlink:href="#DejaVuSans-20" x="633.638672"/>
     <use xlink:href="#DejaVuSans-28" x="665.425781"/>
     <use xlink:href="#DejaVuSans-47" x="704.439453"/>
     <use xlink:href="#DejaVuSans-46" x="781.929688"/>
     <use xlink:href="#DejaVuSans-4c" x="839.449219"/>
     <use xlink:href="#DejaVuSans-4f" x="891.537109"/>
     <use xlink:href="#DejaVuSans-50" x="970.248047"/>
     <use xlink:href="#DejaVuSans-2f" x="1030.550781"/>
     <use xlink:href="#DejaVuSans-73" x="1064.242188"/>
     <use xlink:href="#DejaVuSans-29" x="1116.341797"/>
     <use xlink:href="#DejaVuSans-20" x="1155.355469"/>
     <use xlink:href="#DejaVuSans-76" x="1187.142578"/>
     <use xlink:href="#DejaVuSans-73" x="1246.322266"/>
     <use xlink:href="#DejaVuSans-20" x="1298.421875"/>
     <use xlink:href="#DejaVuSans-61" x="1330.208984"/>
     <use xlink:href="#DejaVuSans-72" x="1391.488281"/>
     <use xlink:href="#DejaVuSans-72" x="1430.851562"/>
     <use xlink:href="#DejaVuSans-61" x="1471.964844"/>
     <use xlink:href="#DejaVuSans-79" x="1533.244141"/>
     <use xlink:href="#DejaVuSans-20" x="1592.423828"/>
     <use xlink:href="#DejaVuSans-6c" x="1624.210938"/>
     <use xlink:href="#DejaVuSans-65" x="1651.994141"/>
     <use xlink:href="#DejaVuSans-6e" x="1713.517578"/>
     <use xlink:href="#DejaVuSans-67" x="1776.896484"/>
     <use xlink:href="#DejaVuSans-74" x="1840.373047"/>
     <use xlink:href="#DejaVuSans-68" x="1879.582031"/>
    </g>
   </g>
   <g id="legend_1">
    <g id="patch_7">
     <path d="M 366.678125 349.958125 
L 490.778125 349.958125 
Q 492.778125 349.958125 492.778125 347.958125 
L 492.778125 288.201875 
Q 492.778125 286.201875 490.778125 286.201875 
L 366.678125 286.201875 
Q 364.678125 286.201875 364.678125 288.201875 
L 364.678125 347.958125 
Q 364.678125 349.958125 366.678125 349.958125 
z
" style="fill: #ffffff; opacity: 0.8; stroke: #cccccc; stroke-linejoin: miter"/>
    </g>
    <g id="line2d_85">
     <path d="M 368.678125 294.301875 
L 378.678125 294.301875 
L 388.678125 294.301875 
" style="fill: none; stroke: #1f77b4; stroke-width: 1.5; stroke-linecap: square"/>
    </g>
    <g id="text_17">
     <!-- $C_{ij}=A_{ik}B_{kj}$ (Intel) -->
     <g transform="translate(396.678125 297.801875)scale(0.1 -0.1)">
      <defs>
       <path id="DejaVuSans-Oblique-43" d="M 4447 4306 
L 4319 3641 
Q 4019 3944 3683 4091 
Q 3347 4238 2956 4238 
Q 2422 4238 2017 3981 
Q 1613 3725 1319 3200 
Q 1131 2863 1032 2486 
Q 934 2109 934 1728 
Q 934 1091 1264 756 
Q 1594 422 2222 422 
Q 2656 422 3056 561 
Q 3456 700 3834 978 
L 3688 231 
Q 3316 72 2936 -9 
Q 2556 -91 2175 -91 
Q 1278 -91 773 396 
Q 269 884 269 1753 
Q 269 2309 461 2846 
Q 653 3384 1013 3828 
Q 1394 4300 1883 4525 
Q 2372 4750 3022 4750 
Q 3422 4750 3780 4639 
Q 4138 4528 4447 4306 
z
" transform="scale(0.015625)"/>
       <path id="DejaVuSans-Oblique-69" d="M 1172 4863 
L 1747 4863 
L 1606 4134 
L 1031 4134 
L 1172 4863 
z
M 909 3500 
L 1484 3500 
L 800 0 
L 225 0 
L 909 3500 
z
" transform="scale(0.015625)"/>
       <path id="DejaVuSans-Oblique-6a" d="M 928 3500 
L 1503 3500 
L 813 -63 
L 809 -78 
Q 694 -675 544 -897 
Q 403 -1106 132 -1218 
Q -138 -1331 -506 -1331 
L -722 -1331 
L -628 -844 
L -481 -844 
Q -144 -844 -1 -703 
Q 141 -563 238 -63 
L 928 3500 
z
M 1197 4863 
L 1772 4863 
L 1631 4134 
L 1056 4134 
L 1197 4863 
z
" transform="scale(0.015625)"/>
       <path id="DejaVuSans-3d" d="M 678 2906 
L 4684 2906 
L 4684 2381 
L 678 2381 
L 678 2906 
z
M 678 1631 
L 4684 1631 
L 4684 1100 
L 678 1100 
L 678 1631 
z
" transform="scale(0.015625)"/>
       <path id="DejaVuSans-Oblique-41" d="M 2356 4666 
L 3072 4666 
L 3938 0 
L 3278 0 
L 3084 1197 
L 984 1197 
L 325 0 
L -341 0 
L 2356 4666 
z
M 2584 4044 
L 1275 1722 
L 2988 1722 
L 2584 4044 
z
" transform="scale(0.015625)"/>
       <path id="DejaVuSans-Oblique-6b" d="M 1172 4863 
L 1747 4863 
L 1197 2028 
L 3169 3500 
L 3916 3500 
L 1716 1825 
L 3322 0 
L 2625 0 
L 1131 1709 
L 800 0 
L 225 0 
L 1172 4863 
z
" transform="scale(0.015625)"/>
       <path id="DejaVuSans-Oblique-42" d="M 1081 4666 
L 2694 4666 
Q 3350 4666 3675 4422 
Q 4000 4178 4000 3688 
Q 4000 3238 3720 2911 
Q 3441 2584 2988 2516 
Q 3375 2428 3569 2181 
Q 3763 1934 3763 1522 
Q 3763 819 3242 409 
Q 2722 0 1819 0 
L 172 0 
L 1081 4666 
z
M 1234 2228 
L 903 519 
L 1919 519 
Q 2491 519 2800 781 
Q 3109 1044 3109 1522 
Q 3109 1891 2904 2059 
Q 2700 2228 2247 2228 
L 1234 2228 
z
M 1606 4147 
L 1331 2741 
L 2272 2741 
Q 2775 2741 3058 2959 
Q 3341 3178 3341 3566 
Q 3341 3869 3150 4008 
Q 2959 4147 2541 4147 
L 1606 4147 
z
" transform="scale(0.015625)"/>
       <path id="DejaVuSans-49" d="M 628 4666 
L 1259 4666 
L 1259 0 
L 628 0 
L 628 4666 
z
" transform="scale(0.015625)"/>
      </defs>
      <use xlink:href="#DejaVuSans-Oblique-43" transform="translate(0 0.015625)"/>
      <use xlink:href="#DejaVuSans-Oblique-69" transform="translate(69.824219 -16.390625)scale(0.7)"/>
      <use xlink:href="#DejaVuSans-Oblique-6a" transform="translate(89.272461 -16.390625)scale(0.7)"/>
      <use xlink:href="#DejaVuSans-3d" transform="translate(130.9375 0.015625)"/>
      <use xlink:href="#DejaVuSans-Oblique-41" transform="translate(234.208984 0.015625)"/>
      <use xlink:href="#DejaVuSans-Oblique-69" transform="translate(302.617188 -16.390625)scale(0.7)"/>
      <use xlink:href="#DejaVuSans-Oblique-6b" transform="translate(322.06543 -16.390625)scale(0.7)"/>
      <use xlink:href="#DejaVuSans-Oblique-42" transform="translate(365.336914 0.015625)"/>
      <use xlink:href="#DejaVuSans-Oblique-6b" transform="translate(433.94043 -16.390625)scale(0.7)"/>
      <use xlink:href="#DejaVuSans-Oblique-6a" transform="translate(474.477539 -16.390625)scale(0.7)"/>
      <use xlink:href="#DejaVuSans-20" transform="translate(496.660156 0.015625)"/>
      <use xlink:href="#DejaVuSans-28" transform="translate(528.447266 0.015625)"/>
      <use xlink:href="#DejaVuSans-49" transform="translate(567.460938 0.015625)"/>
      <use xlink:href="#DejaVuSans-6e" transform="translate(596.953125 0.015625)"/>
      <use xlink:href="#DejaVuSans-74" transform="translate(660.332031 0.015625)"/>
      <use xlink:href="#DejaVuSans-65" transform="translate(699.541016 0.015625)"/>
      <use xlink:href="#DejaVuSans-6c" transform="translate(761.064453 0.015625)"/>
      <use xlink:href="#DejaVuSans-29" transform="translate(788.847656 0.015625)"/>
     </g>
    </g>
    <g id="line2d_86">
     <path d="M 368.678125 310.001875 
L 378.678125 310.001875 
L 388.678125 310.001875 
" style="fill: none; stroke: #ff7f0e; stroke-width: 1.5; stroke-linecap: square"/>
    </g>
    <g id="text_18">
     <!-- $C_{ij}=A_{ik}B_{kj}$ (Nvidia) -->
     <g transform="translate(396.678125 313.501875)scale(0.1 -0.1)">
      <defs>
       <path id="DejaVuSans-4e" d="M 628 4666 
L 1478 4666 
L 3547 763 
L 3547 4666 
L 4159 4666 
L 4159 0 
L 3309 0 
L 1241 3903 
L 1241 0 
L 628 0 
L 628 4666 
z
" transform="scale(0.015625)"/>
       <path id="DejaVuSans-69" d="M 603 3500 
L 1178 3500 
L 1178 0 
L 603 0 
L 603 3500 
z
M 603 4863 
L 1178 4863 
L 1178 4134 
L 603 4134 
L 603 4863 
z
" transform="scale(0.015625)"/>
      </defs>
      <use xlink:href="#DejaVuSans-Oblique-43" transform="translate(0 0.015625)"/>
      <use xlink:href="#DejaVuSans-Oblique-69" transform="translate(69.824219 -16.390625)scale(0.7)"/>
      <use xlink:href="#DejaVuSans-Oblique-6a" transform="translate(89.272461 -16.390625)scale(0.7)"/>
      <use xlink:href="#DejaVuSans-3d" transform="translate(130.9375 0.015625)"/>
      <use xlink:href="#DejaVuSans-Oblique-41" transform="translate(234.208984 0.015625)"/>
      <use xlink:href="#DejaVuSans-Oblique-69" transform="translate(302.617188 -16.390625)scale(0.7)"/>
      <use xlink:href="#DejaVuSans-Oblique-6b" transform="translate(322.06543 -16.390625)scale(0.7)"/>
      <use xlink:href="#DejaVuSans-Oblique-42" transform="translate(365.336914 0.015625)"/>
      <use xlink:href="#DejaVuSans-Oblique-6b" transform="translate(433.94043 -16.390625)scale(0.7)"/>
      <use xlink:href="#DejaVuSans-Oblique-6a" transform="translate(474.477539 -16.390625)scale(0.7)"/>
      <use xlink:href="#DejaVuSans-20" transform="translate(496.660156 0.015625)"/>
      <use xlink:href="#DejaVuSans-28" transform="translate(528.447266 0.015625)"/>
      <use xlink:href="#DejaVuSans-4e" transform="translate(567.460938 0.015625)"/>
      <use xlink:href="#DejaVuSans-76" transform="translate(642.265625 0.015625)"/>
      <use xlink:href="#DejaVuSans-69" transform="translate(701.445312 0.015625)"/>
      <use xlink:href="#DejaVuSans-64" transform="translate(729.228516 0.015625)"/>
      <use xlink:href="#DejaVuSans-69" transform="translate(792.705078 0.015625)"/>
      <use xlink:href="#DejaVuSans-61" transform="translate(820.488281 0.015625)"/>
      <use xlink:href="#DejaVuSans-29" transform="translate(881.767578 0.015625)"/>
     </g>
    </g>
    <g id="line2d_87">
     <path d="M 368.678125 325.700312 
L 378.678125 325.700312 
L 388.678125 325.700312 
" style="fill: none; stroke: #2ca02c; stroke-width: 1.5; stroke-linecap: square"/>
    </g>
    <g id="text_19">
     <!-- y=ax+y (Intel) -->
     <g transform="translate(396.678125 329.200312)scale(0.1 -0.1)">
      <defs>
       <path id="DejaVuSans-78" d="M 3513 3500 
L 2247 1797 
L 3578 0 
L 2900 0 
L 1881 1375 
L 863 0 
L 184 0 
L 1544 1831 
L 300 3500 
L 978 3500 
L 1906 2253 
L 2834 3500 
L 3513 3500 
z
" transform="scale(0.015625)"/>
       <path id="DejaVuSans-2b" d="M 2944 4013 
L 2944 2272 
L 4684 2272 
L 4684 1741 
L 2944 1741 
L 2944 0 
L 2419 0 
L 2419 1741 
L 678 1741 
L 678 2272 
L 2419 2272 
L 2419 4013 
L 2944 4013 
z
" transform="scale(0.015625)"/>
      </defs>
      <use xlink:href="#DejaVuSans-79"/>
      <use xlink:href="#DejaVuSans-3d" x="59.179688"/>
      <use xlink:href="#DejaVuSans-61" x="142.96875"/>
      <use xlink:href="#DejaVuSans-78" x="204.248047"/>
      <use xlink:href="#DejaVuSans-2b" x="263.427734"/>
      <use xlink:href="#DejaVuSans-79" x="347.216797"/>
      <use xlink:href="#DejaVuSans-20" x="406.396484"/>
      <use xlink:href="#DejaVuSans-28" x="438.183594"/>
      <use xlink:href="#DejaVuSans-49" x="477.197266"/>
      <use xlink:href="#DejaVuSans-6e" x="506.689453"/>
      <use xlink:href="#DejaVuSans-74" x="570.068359"/>
      <use xlink:href="#DejaVuSans-65" x="609.277344"/>
      <use xlink:href="#DejaVuSans-6c" x="670.800781"/>
      <use xlink:href="#DejaVuSans-29" x="698.583984"/>
     </g>
    </g>
    <g id="line2d_88">
     <path d="M 368.678125 340.378437 
L 378.678125 340.378437 
L 388.678125 340.378437 
" style="fill: none; stroke: #d62728; stroke-width: 1.5; stroke-linecap: square"/>
    </g>
    <g id="text_20">
     <!-- y=ax+y (Nvidia) -->
     <g transform="translate(396.678125 343.878437)scale(0.1 -0.1)">
      <use xlink:href="#DejaVuSans-79"/>
      <use xlink:href="#DejaVuSans-3d" x="59.179688"/>
      <use xlink:href="#DejaVuSans-61" x="142.96875"/>
      <use xlink:href="#DejaVuSans-78" x="204.248047"/>
      <use xlink:href="#DejaVuSans-2b" x="263.427734"/>
      <use xlink:href="#DejaVuSans-79" x="347.216797"/>
      <use xlink:href="#DejaVuSans-20" x="406.396484"/>
      <use xlink:href="#DejaVuSans-28" x="438.183594"/>
      <use xlink:href="#DejaVuSans-4e" x="477.197266"/>
      <use xlink:href="#DejaVuSans-76" x="552.001953"/>
      <use xlink:href="#DejaVuSans-69" x="611.181641"/>
      <use xlink:href="#DejaVuSans-64" x="638.964844"/>
      <use xlink:href="#DejaVuSans-69" x="702.441406"/>
      <use xlink:href="#DejaVuSans-61" x="730.224609"/>
      <use xlink:href="#DejaVuSans-29" x="791.503906"/>
     </g>
    </g>
   </g>
  </g>
 </g>
 <defs>
  <clipPath id="p1524c7b88e">
   <rect x="51.378125" y="22.318125" width="446.4" height="332.64"/>
  </clipPath>
 </defs>
</svg>
